<svg viewBox="0 0 502.002 125.366" height="125.366" width="502.002" xmlns:xlink="http://www.w3.org/1999/xlink" xmlns="http://www.w3.org/2000/svg">
  <defs>
    <clipPath id="clip-path">
      <rect fill="#f9f9f9" transform="translate(1523.591 8040.334)" height="125.366" width="160.75" data-name="Rectangle 21219" id="Rectangle_21219"></rect>
    </clipPath>
  </defs>
  <g transform="translate(-778.054 -1735.384)" data-name="Group 48246" id="Group_48246">
    <rect fill="#060d36" transform="translate(778.054 1743.75)" height="117" width="502" data-name="Rectangle 21217" id="Rectangle_21217"></rect>
    <g clip-path="url(#clip-path)" transform="translate(-404.285 -6304.95)" data-name="Mask Group 40377" id="Mask_Group_40377">
      <g opacity="0.2" transform="translate(1536.131 8040.334)" data-name="Group 42811" id="Group_42811">
        <path stroke-width="1.75" stroke="#fff" fill="none" transform="translate(-457.042 -268.289)" d="M794.678,511.387c.66-1.8,1.114-3.657,1.652-5.492l.787-2.758c.262-.919.439-1.861.665-2.79l.645-2.795c.2-.934.464-1.856.606-2.8l1.009-5.649a161.21,161.21,0,0,0,1.829-22.883l50.326.114a211.283,211.283,0,0,1-2.448,30.639l-1.355,7.588c-.206,1.268-.532,2.514-.808,3.769l-.866,3.758c-.3,1.249-.56,2.509-.9,3.748l-1.046,3.713c-.717,2.469-1.361,4.961-2.225,7.384Z" data-name="Path 47516" id="Path_47516"></path>
        <line stroke-width="1.75" stroke="#fff" fill="none" transform="translate(344.588 205.93)" y2="1.084" x2="19.433" data-name="Line 4216" id="Line_4216"></line>
        <line stroke-width="1.75" stroke="#fff" fill="none" transform="translate(343.7 215.596)" y2="2.355" x2="19.32" data-name="Line 4217" id="Line_4217"></line>
        <line stroke-width="1.75" stroke="#fff" fill="none" transform="translate(342.217 225.182)" y2="3.624" x2="19.123" data-name="Line 4218" id="Line_4218"></line>
        <line stroke-width="1.75" stroke="#fff" fill="none" transform="translate(340.131 234.652)" y2="4.883" x2="18.841" data-name="Line 4219" id="Line_4219"></line>
        <path stroke-width="1.75" stroke="#fff" fill="none" transform="translate(-429.024 -329.316)" d="M745.921,613.159l1.664-2.339c.549-.784,1.132-1.545,1.629-2.364l3.1-4.833c1.923-3.307,3.895-6.592,5.57-10.033l1.311-2.552c.424-.857.793-1.74,1.193-2.609l1.183-2.614c.4-.87.8-1.737,1.132-2.635l2.106-5.336c.642-1.8,1.229-3.621,1.852-5.429l47.866,15.542c-.826,2.435-1.63,4.879-2.5,7.3L809.2,602.43c-.456,1.2-.99,2.372-1.518,3.543l-1.586,3.514c-.538,1.167-1.048,2.347-1.615,3.5l-1.749,3.434c-2.271,4.612-4.882,9.04-7.489,13.463l-4.154,6.485c-.677,1.091-1.444,2.121-2.179,3.172l-2.231,3.138Z" data-name="Path 47517" id="Path_47517"></path>
        <line stroke-width="1.75" stroke="#fff" fill="none" transform="translate(334.955 250.623)" y2="7.014" x2="18.155" data-name="Line 4220" id="Line_4220"></line>
        <line stroke-width="1.75" stroke="#fff" fill="none" transform="translate(331.167 259.548)" y2="8.201" x2="17.651" data-name="Line 4221" id="Line_4221"></line>
        <line stroke-width="1.75" stroke="#fff" fill="none" transform="translate(326.815 268.216)" y2="9.35" x2="17.07" data-name="Line 4222" id="Line_4222"></line>
        <line stroke-width="1.75" stroke="#fff" fill="none" transform="translate(321.848 276.549)" y2="10.454" x2="16.417" data-name="Line 4223" id="Line_4223"></line>
        <path stroke-width="1.75" stroke="#fff" fill="none" transform="translate(-403.468 -268.216)" d="M701.45,538.359l11.71,8.481,1.563-2.2c.517-.736,1.067-1.45,1.532-2.221l2.912-4.541c1.8-3.11,3.661-6.192,5.231-9.426l1.233-2.4c.4-.8.743-1.635,1.119-2.451l1.111-2.455c.373-.817.756-1.63,1.064-2.474l1.978-5.011c.6-1.692,1.151-3.4,1.737-5.1.624-1.686,1.044-3.436,1.55-5.157l.741-2.59c.247-.863.411-1.748.622-2.621l.607-2.625c.192-.877.439-1.742.57-2.633l.948-5.307a152.387,152.387,0,0,0,1.72-21.512l-14.458-.033" data-name="Path 47518" id="Path_47518"></path>
        <line stroke-width="1.75" stroke="#fff" fill="none" transform="translate(315.422 235.885)" y2="4.465" x2="13.752" data-name="Line 4224" id="Line_4224"></line>
        <path stroke-width="1.75" stroke="#fff" fill="none" transform="translate(-384.725 -385.112)" d="M668.834,701.823a155.345,155.345,0,0,0,17.474-14.878,157.255,157.255,0,0,0,14.921-17.437l40.623,29.707a196.04,196.04,0,0,1-43.4,43.3Z" data-name="Path 47519" id="Path_47519"></path>
        <line stroke-width="1.75" stroke="#fff" fill="none" transform="translate(311.623 290.732)" y2="12.321" x2="15.066" data-name="Line 4225" id="Line_4225"></line>
        <line stroke-width="1.75" stroke="#fff" fill="none" transform="translate(305.22 298.027)" y2="13.281" x2="14.227" data-name="Line 4226" id="Line_4226"></line>
        <line stroke-width="1.75" stroke="#fff" fill="none" transform="translate(298.364 304.899)" y2="14.184" x2="13.327" data-name="Line 4227" id="Line_4227"></line>
        <line stroke-width="1.75" stroke="#fff" fill="none" transform="translate(291.1 311.338)" y2="15.027" x2="12.37" data-name="Line 4228" id="Line_4228"></line>
        <path stroke-width="1.75" stroke="#fff" fill="none" transform="translate(-329.738 -428.771)" d="M573.147,766.308l2.717-.919,1.359-.458.68-.228.667-.262,5.337-2.1.667-.261c.221-.093.437-.2.655-.294l1.306-.592,2.614-1.182,1.308-.589.654-.294.639-.326,2.553-1.31a140.366,140.366,0,0,0,19.544-12l29.613,40.691a190.6,190.6,0,0,1-26.222,16.109l-3.433,1.75-.861.434-.877.4-1.754.8-3.513,1.588-1.759.79-.881.39-.9.357-7.175,2.828-.9.348-.912.313-1.825.623-3.654,1.236Z" data-name="Path 47520" id="Path_47520"></path>
        <line stroke-width="1.75" stroke="#fff" fill="none" transform="translate(277.515 321.233)" y2="16.334" x2="10.583" data-name="Line 4229" id="Line_4229"></line>
        <line stroke-width="1.75" stroke="#fff" fill="none" transform="translate(269.21 326.246)" y2="16.996" x2="9.485" data-name="Line 4230" id="Line_4230"></line>
        <line stroke-width="1.75" stroke="#fff" fill="none" transform="translate(260.595 330.702)" y2="17.585" x2="8.341" data-name="Line 4231" id="Line_4231"></line>
        <line stroke-width="1.75" stroke="#fff" fill="none" transform="translate(251.691 334.54)" y2="18.099" x2="7.158" data-name="Line 4232" id="Line_4232"></line>
        <path stroke-width="1.75" stroke="#fff" fill="none" transform="translate(-319.923 -366.485)" d="M556.068,681.826l4.5,13.741,2.551-.864,1.276-.428.639-.214.626-.247,5.012-1.976.628-.245c.207-.088.409-.185.614-.277l1.226-.558,2.456-1.11,1.229-.552.615-.275.6-.307,2.4-1.233A131.493,131.493,0,0,0,598.8,676a146.488,146.488,0,0,0,16.425-13.983,148.466,148.466,0,0,0,14.024-16.39L617.575,637.1" data-name="Path 47521" id="Path_47521"></path>
        <line stroke-width="1.75" stroke="#fff" fill="none" transform="translate(270.366 297.827)" y2="11.69" x2="8.508" data-name="Line 4233" id="Line_4233"></line>
        <path stroke-width="1.75" stroke="#fff" fill="none" transform="translate(-267.817 -457.203)" d="M465.394,802.051a165.622,165.622,0,0,0,22.889-1.778,154.106,154.106,0,0,0,22.3-5.315l15.431,47.9A204.3,204.3,0,0,1,496.038,850a215.375,215.375,0,0,1-30.644,2.38Z" data-name="Path 47522" id="Path_47522"></path>
        <line stroke-width="1.75" stroke="#fff" fill="none" transform="translate(235.102 340.009)" y2="18.824" x2="4.945" data-name="Line 4234" id="Line_4234"></line>
        <line stroke-width="1.75" stroke="#fff" fill="none" transform="translate(225.644 342.144)" y2="19.111" x2="3.687" data-name="Line 4235" id="Line_4235"></line>
        <line stroke-width="1.75" stroke="#fff" fill="none" transform="translate(216.062 343.65)" y2="19.312" x2="2.418" data-name="Line 4236" id="Line_4236"></line>
        <line stroke-width="1.75" stroke="#fff" fill="none" transform="translate(206.399 344.56)" y2="19.429" x2="1.147" data-name="Line 4237" id="Line_4237"></line>
        <path stroke-width="1.75" stroke="#fff" fill="none" transform="translate(-185.916 -457.203)" d="M338.3,794.958a154.057,154.057,0,0,0,22.3,5.315,165.474,165.474,0,0,0,22.889,1.778v50.326A215.441,215.441,0,0,1,352.849,850a204.306,204.306,0,0,1-29.976-7.138Z" data-name="Path 47523" id="Path_47523"></path>
        <line stroke-width="1.75" stroke="#fff" fill="none" transform="translate(188.533 344.623)" y2="19.435" x1="1.04" data-name="Line 4238" id="Line_4238"></line>
        <line stroke-width="1.75" stroke="#fff" fill="none" transform="translate(177.594 343.753)" y2="19.325" x1="2.31" data-name="Line 4239" id="Line_4239"></line>
        <line stroke-width="1.75" stroke="#fff" fill="none" transform="translate(166.737 342.287)" y2="19.131" x1="3.58" data-name="Line 4240" id="Line_4240"></line>
        <line stroke-width="1.75" stroke="#fff" fill="none" transform="translate(156.002 340.23)" y2="18.852" x1="4.84" data-name="Line 4241" id="Line_4241"></line>
        <path stroke-width="1.75" stroke="#fff" fill="none" transform="translate(-210.449 -427.167)" d="M370,742.692l-4.433,13.762a145.174,145.174,0,0,0,20.943,4.992,139.3,139.3,0,0,0,43.037,0,145.174,145.174,0,0,0,20.943-4.992l-4.433-13.762" data-name="Path 47524" id="Path_47524"></path>
        <line stroke-width="1.75" stroke="#fff" fill="none" transform="translate(197.577 321.493)" y2="14.458" data-name="Line 4242" id="Line_4242"></line>
        <path stroke-width="1.75" stroke="#fff" fill="none" transform="translate(-110.899 -428.771)" d="M221.944,745.482a140.379,140.379,0,0,0,19.544,12l2.553,1.31.639.326.654.294,1.308.589,2.614,1.182,1.306.593c.219.1.434.2.655.294l.667.261,5.337,2.1.667.262.68.228,1.359.458,2.717.92-15.653,47.83-3.654-1.236-1.825-.623-.912-.313-.9-.348-7.176-2.828-.9-.357-.881-.39-1.759-.789-3.513-1.588-1.754-.8-.877-.4-.86-.434-3.433-1.75a190.58,190.58,0,0,1-26.223-16.109Z" data-name="Path 47525" id="Path_47525"></path>
        <line stroke-width="1.75" stroke="#fff" fill="none" transform="translate(137.171 334.841)" y2="18.139" x1="7.056" data-name="Line 4243" id="Line_4243"></line>
        <line stroke-width="1.75" stroke="#fff" fill="none" transform="translate(127.065 331.038)" y2="17.632" x1="8.242" data-name="Line 4244" id="Line_4244"></line>
        <line stroke-width="1.75" stroke="#fff" fill="none" transform="translate(117.265 326.656)" y2="17.049" x1="9.39" data-name="Line 4245" id="Line_4245"></line>
        <line stroke-width="1.75" stroke="#fff" fill="none" transform="translate(107.837 321.675)" y2="16.393" x1="10.492" data-name="Line 4246" id="Line_4246"></line>
        <path stroke-width="1.75" stroke="#fff" fill="none" transform="translate(-52.257 -385.112)" d="M130.907,669.509a157.3,157.3,0,0,0,14.921,17.437A155.389,155.389,0,0,0,163.3,701.824l-29.613,40.691a196.025,196.025,0,0,1-43.4-43.3Z" data-name="Path 47526" id="Path_47526"></path>
        <line stroke-width="1.75" stroke="#fff" fill="none" transform="translate(92.414 311.844)" y2="15.095" x1="12.286" data-name="Line 4247" id="Line_4247"></line>
        <line stroke-width="1.75" stroke="#fff" fill="none" transform="translate(84.136 305.465)" y2="14.258" x1="13.249" data-name="Line 4248" id="Line_4248"></line>
        <line stroke-width="1.75" stroke="#fff" fill="none" transform="translate(76.347 298.619)" y2="13.36" x1="14.154" data-name="Line 4249" id="Line_4249"></line>
        <line stroke-width="1.75" stroke="#fff" fill="none" transform="translate(69.045 291.373)" y2="12.404" x1="14.998" data-name="Line 4250" id="Line_4250"></line>
        <path stroke-width="1.75" stroke="#fff" fill="none" transform="translate(-116.843 -366.485)" d="M214.346,637.1l-11.671,8.535A148.392,148.392,0,0,0,216.7,662.021,146.462,146.462,0,0,0,233.124,676a131.514,131.514,0,0,0,18.363,11.278l2.4,1.232.6.307.615.275,1.229.552,2.455,1.11,1.226.558c.205.092.407.19.614.277l.627.245,5.012,1.977.627.247.638.214,1.277.429,2.551.863,4.5-13.742" data-name="Path 47527" id="Path_47527"></path>
        <line stroke-width="1.75" stroke="#fff" fill="none" transform="translate(116.28 297.827)" y2="11.69" x1="8.508" data-name="Line 4251" id="Line_4251"></line>
        <path stroke-width="1.75" stroke="#fff" fill="none" transform="translate(-13.922 -329.316)" d="M71.44,572.415c.622,1.808,1.21,3.628,1.852,5.429L75.4,583.18c.33.9.735,1.765,1.132,2.635l1.182,2.614c.4.868.77,1.751,1.194,2.608l1.311,2.552c1.675,3.441,3.647,6.726,5.57,10.033l3.1,4.833c.5.819,1.079,1.58,1.629,2.364l1.664,2.339-40.759,29.52-2.23-3.137c-.735-1.051-1.5-2.082-2.179-3.173l-4.154-6.485c-2.606-4.424-5.217-8.851-7.489-13.463l-1.749-3.434c-.567-1.152-1.077-2.333-1.615-3.5l-1.586-3.514c-.529-1.171-1.063-2.34-1.518-3.543l-2.826-7.176c-.869-2.419-1.673-4.863-2.5-7.3Z" data-name="Path 47528" id="Path_47528"></path>
        <line stroke-width="1.75" stroke="#fff" fill="none" transform="translate(57.39 277.24)" y2="10.546" x1="16.358" data-name="Line 4252" id="Line_4252"></line>
        <line stroke-width="1.75" stroke="#fff" fill="none" transform="translate(51.73 268.925)" y2="9.445" x1="17.018" data-name="Line 4253" id="Line_4253"></line>
        <line stroke-width="1.75" stroke="#fff" fill="none" transform="translate(46.718 260.296)" y2="8.3" x1="17.605" data-name="Line 4254" id="Line_4254"></line>
        <line stroke-width="1.75" stroke="#fff" fill="none" transform="translate(42.384 251.384)" y2="7.116" x1="18.116" data-name="Line 4255" id="Line_4255"></line>
        <path stroke-width="1.75" stroke="#fff" fill="none" transform="translate(-0.88 -268.289)" d="M51.206,466.216A161.206,161.206,0,0,0,53.035,489.1l1.009,5.649c.142.947.4,1.87.606,2.8l.645,2.795c.225.929.4,1.87.665,2.79l.787,2.758c.538,1.834.991,3.7,1.652,5.492L10.533,526.929c-.864-2.424-1.508-4.915-2.225-7.384l-1.045-3.713c-.345-1.238-.6-2.5-.9-3.748l-.866-3.758c-.275-1.256-.6-2.5-.807-3.769L3.328,496.97A211.291,211.291,0,0,1,.88,466.33Z" data-name="Path 47529" id="Path_47529"></path>
        <line stroke-width="1.75" stroke="#fff" fill="none" transform="translate(36.436 235.44)" y2="4.989" x1="18.813" data-name="Line 4256" id="Line_4256"></line>
        <line stroke-width="1.75" stroke="#fff" fill="none" transform="translate(33.978 225.988)" y2="3.731" x1="19.102" data-name="Line 4257" id="Line_4257"></line>
        <line stroke-width="1.75" stroke="#fff" fill="none" transform="translate(32.251 216.409)" y2="2.462" x1="19.307" data-name="Line 4258" id="Line_4258"></line>
        <line stroke-width="1.75" stroke="#fff" fill="none" transform="translate(31.203 206.749)" y2="1.192" x1="19.427" data-name="Line 4259" id="Line_4259"></line>
        <path stroke-width="1.75" stroke="#fff" fill="none" transform="translate(-80.894 -268.216)" d="M154.575,466.091l-14.458.033a152.3,152.3,0,0,0,1.72,21.512l.948,5.307c.131.89.379,1.755.57,2.633l.606,2.625c.212.872.376,1.757.623,2.621l.741,2.589c.507,1.722.926,3.472,1.55,5.157.586,1.7,1.136,3.407,1.737,5.1l1.978,5.011c.308.844.69,1.657,1.064,2.475l1.111,2.455c.376.815.721,1.646,1.119,2.451l1.234,2.4c1.57,3.235,3.429,6.317,5.231,9.426l2.913,4.541c.464.771,1.014,1.484,1.531,2.22l1.564,2.2,11.71-8.48" data-name="Path 47530" id="Path_47530"></path>
        <line stroke-width="1.75" stroke="#fff" fill="none" transform="translate(65.981 235.885)" y2="4.465" x1="13.752" data-name="Line 4260" id="Line_4260"></line>
        <path stroke-width="1.75" stroke="#fff" fill="none" transform="translate(-0.88 -185.345)" d="M58.4,337.421c-.66,1.8-1.114,3.658-1.652,5.492l-.787,2.758c-.262.92-.439,1.861-.665,2.79l-.645,2.795c-.2.934-.464,1.856-.606,2.8l-1.009,5.649a161.2,161.2,0,0,0-1.829,22.883L.88,382.477a211.286,211.286,0,0,1,2.448-30.639l1.355-7.588c.206-1.268.533-2.514.808-3.769l.866-3.757c.3-1.249.56-2.51.9-3.748l1.045-3.712c.717-2.469,1.362-4.961,2.225-7.384Z" data-name="Path 47531" id="Path_47531"></path>
        <line stroke-width="1.75" stroke="#fff" fill="none" transform="translate(31.135 188.16)" y1="1.084" x1="19.433" data-name="Line 4261" id="Line_4261"></line>
        <line stroke-width="1.75" stroke="#fff" fill="none" transform="translate(32.134 177.223)" y1="2.355" x1="19.32" data-name="Line 4262" id="Line_4262"></line>
        <line stroke-width="1.75" stroke="#fff" fill="none" transform="translate(33.815 166.368)" y1="3.624" x1="19.123" data-name="Line 4263" id="Line_4263"></line>
        <line stroke-width="1.75" stroke="#fff" fill="none" transform="translate(36.183 155.64)" y1="4.883" x1="18.841" data-name="Line 4264" id="Line_4264"></line>
        <path stroke-width="1.75" stroke="#fff" fill="none" transform="translate(-13.922 -111.412)" d="M92.178,222.745l-1.664,2.34c-.55.783-1.132,1.544-1.629,2.363l-3.1,4.833c-1.923,3.307-3.895,6.591-5.57,10.033l-1.311,2.553c-.424.857-.793,1.74-1.194,2.609l-1.183,2.614c-.4.87-.8,1.737-1.132,2.635l-2.106,5.336c-.642,1.8-1.229,3.621-1.852,5.429L23.574,247.947c.826-2.435,1.629-4.879,2.5-7.3l2.826-7.176c.456-1.2.99-2.372,1.518-3.543L32,226.417c.538-1.167,1.048-2.347,1.615-3.5l1.749-3.434c2.271-4.612,4.882-9.04,7.489-13.463l4.154-6.485c.678-1.091,1.444-2.121,2.179-3.173l2.23-3.137Z" data-name="Path 47532" id="Path_47532"></path>
        <line stroke-width="1.75" stroke="#fff" fill="none" transform="translate(42.045 137.538)" y1="7.014" x1="18.155" data-name="Line 4265" id="Line_4265"></line>
        <line stroke-width="1.75" stroke="#fff" fill="none" transform="translate(46.336 127.425)" y1="8.201" x1="17.651" data-name="Line 4266" id="Line_4266"></line>
        <line stroke-width="1.75" stroke="#fff" fill="none" transform="translate(51.268 117.609)" y1="9.35" x1="17.07" data-name="Line 4267" id="Line_4267"></line>
        <line stroke-width="1.75" stroke="#fff" fill="none" transform="translate(56.889 108.171)" y1="10.455" x1="16.417" data-name="Line 4268" id="Line_4268"></line>
        <path stroke-width="1.75" stroke="#fff" fill="none" transform="translate(-80.894 -158.345)" d="M178.067,283.378l-11.71-8.481-1.564,2.2c-.516.736-1.067,1.45-1.531,2.221l-2.913,4.541c-1.8,3.11-3.661,6.192-5.231,9.426l-1.234,2.4c-.4.8-.743,1.635-1.119,2.451l-1.111,2.455c-.373.817-.756,1.63-1.064,2.474l-1.978,5.011c-.6,1.692-1.151,3.4-1.737,5.1-.624,1.686-1.044,3.435-1.55,5.157l-.741,2.589c-.247.863-.411,1.748-.622,2.621l-.607,2.625c-.192.877-.439,1.742-.57,2.632l-.948,5.307a152.349,152.349,0,0,0-1.72,21.512l14.458.033" data-name="Path 47533" id="Path_47533"></path>
        <line stroke-width="1.75" stroke="#fff" fill="none" transform="translate(65.981 154.824)" y1="4.465" x1="13.752" data-name="Line 4269" id="Line_4269"></line>
        <path stroke-width="1.75" stroke="#fff" fill="none" transform="translate(-52.257 -51.912)" d="M163.3,130.375a155.325,155.325,0,0,0-17.474,14.878,157.25,157.25,0,0,0-14.921,17.437L90.284,132.983a196.043,196.043,0,0,1,43.4-43.3Z" data-name="Path 47534" id="Path_47534"></path>
        <line stroke-width="1.75" stroke="#fff" fill="none" transform="translate(68.464 92.121)" y1="12.321" x1="15.066" data-name="Line 4270" id="Line_4270"></line>
        <line stroke-width="1.75" stroke="#fff" fill="none" transform="translate(75.707 83.867)" y1="13.281" x1="14.227" data-name="Line 4271" id="Line_4271"></line>
        <line stroke-width="1.75" stroke="#fff" fill="none" transform="translate(83.464 76.093)" y1="14.184" x1="13.327" data-name="Line 4272" id="Line_4272"></line>
        <line stroke-width="1.75" stroke="#fff" fill="none" transform="translate(91.684 68.81)" y1="15.027" x1="12.37" data-name="Line 4273" id="Line_4273"></line>
        <path stroke-width="1.75" stroke="#fff" fill="none" transform="translate(-110.899 -14.131)" d="M262.644,71.768l-2.717.919-1.359.458-.68.228-.667.262-5.337,2.1-.667.262c-.22.093-.436.2-.655.294l-1.306.592-2.614,1.182-1.308.589-.654.294-.639.326-2.553,1.31a140.363,140.363,0,0,0-19.544,12L192.331,51.9a190.6,190.6,0,0,1,26.222-16.109l3.433-1.75.86-.433.877-.4,1.754-.8,3.513-1.588,1.759-.789.881-.39.9-.357,7.176-2.829.9-.348.912-.313,1.825-.623,3.654-1.236Z" data-name="Path 47535" id="Path_47535"></path>
        <line stroke-width="1.75" stroke="#fff" fill="none" transform="translate(107.056 57.608)" y1="16.334" x1="10.583" data-name="Line 4274" id="Line_4274"></line>
        <line stroke-width="1.75" stroke="#fff" fill="none" transform="translate(116.46 51.933)" y1="16.996" x1="9.485" data-name="Line 4275" id="Line_4275"></line>
        <line stroke-width="1.75" stroke="#fff" fill="none" transform="translate(126.219 46.887)" y1="17.585" x1="8.341" data-name="Line 4276" id="Line_4276"></line>
        <line stroke-width="1.75" stroke="#fff" fill="none" transform="translate(136.306 42.536)" y1="18.099" x1="7.158" data-name="Line 4277" id="Line_4277"></line>
        <path stroke-width="1.75" stroke="#fff" fill="none" transform="translate(-116.843 -90.175)" d="M275.853,170.01l-4.5-13.741-2.551.863-1.276.428-.639.213-.627.247L261.251,160l-.628.245c-.207.088-.409.185-.614.277l-1.226.558-2.456,1.11-1.229.552-.615.275-.6.308-2.4,1.233a131.5,131.5,0,0,0-18.363,11.278A146.5,146.5,0,0,0,216.7,189.815a148.426,148.426,0,0,0-14.024,16.39l11.671,8.534" data-name="Path 47536" id="Path_47536"></path>
        <line stroke-width="1.75" stroke="#fff" fill="none" transform="translate(116.28 85.657)" y1="11.69" x1="8.508" data-name="Line 4278" id="Line_4278"></line>
        <path stroke-width="1.75" stroke="#fff" fill="none" transform="translate(-185.917 -0.881)" d="M383.494,51.207A165.6,165.6,0,0,0,360.6,52.985,154.141,154.141,0,0,0,338.3,58.3l-15.43-47.9A204.319,204.319,0,0,1,352.85,3.26,215.359,215.359,0,0,1,383.494.881Z" data-name="Path 47537" id="Path_47537"></path>
        <line stroke-width="1.75" stroke="#fff" fill="none" transform="translate(155.106 36.341)" y1="18.824" x1="4.945" data-name="Line 4279" id="Line_4279"></line>
        <line stroke-width="1.75" stroke="#fff" fill="none" transform="translate(165.824 33.921)" y1="19.111" x1="3.687" data-name="Line 4280" id="Line_4280"></line>
        <line stroke-width="1.75" stroke="#fff" fill="none" transform="translate(176.674 32.213)" y1="19.312" x1="2.418" data-name="Line 4281" id="Line_4281"></line>
        <line stroke-width="1.75" stroke="#fff" fill="none" transform="translate(187.607 31.185)" y1="19.429" x1="1.147" data-name="Line 4282" id="Line_4282"></line>
        <path stroke-width="1.75" stroke="#fff" fill="none" transform="translate(-267.817 -0.881)" d="M510.583,58.3a154.076,154.076,0,0,0-22.3-5.315,165.524,165.524,0,0,0-22.889-1.778V.881A215.413,215.413,0,0,1,496.038,3.26,204.33,204.33,0,0,1,526.014,10.4Z" data-name="Path 47538" id="Path_47538"></path>
        <line stroke-width="1.75" stroke="#fff" fill="none" transform="translate(205.581 31.115)" x2="1.04" y1="19.435" data-name="Line 4283" id="Line_4283"></line>
        <line stroke-width="1.75" stroke="#fff" fill="none" transform="translate(215.249 32.096)" x2="2.31" y1="19.325" data-name="Line 4284" id="Line_4284"></line>
        <line stroke-width="1.75" stroke="#fff" fill="none" transform="translate(224.837 33.756)" x2="3.58" y1="19.131" data-name="Line 4285" id="Line_4285"></line>
        <line stroke-width="1.75" stroke="#fff" fill="none" transform="translate(234.313 36.092)" x2="4.84" y1="18.852" data-name="Line 4286" id="Line_4286"></line>
        <path stroke-width="1.75" stroke="#fff" fill="none" transform="translate(-210.449 -80.894)" d="M446.055,160.544l4.433-13.762a145.182,145.182,0,0,0-20.943-4.992,139.3,139.3,0,0,0-43.037,0,145.182,145.182,0,0,0-20.943,4.992L370,160.544" data-name="Path 47539" id="Path_47539"></path>
        <line stroke-width="1.75" stroke="#fff" fill="none" transform="translate(197.577 59.224)" y1="14.458" data-name="Line 4287" id="Line_4287"></line>
        <path stroke-width="1.75" stroke="#fff" fill="none" transform="translate(-329.738 -14.131)" d="M613.847,92.594a140.35,140.35,0,0,0-19.544-12l-2.553-1.31-.639-.326-.654-.294-1.308-.59-2.614-1.182-1.306-.593c-.218-.1-.434-.2-.655-.294l-.667-.262-5.337-2.1-.667-.262-.68-.228-1.359-.458-2.717-.92L588.8,23.938l3.654,1.236,1.825.623.912.313.9.348,7.175,2.829.9.357.881.39,1.759.789,3.513,1.588,1.754.8.877.4.861.433,3.433,1.75A190.626,190.626,0,0,1,643.46,51.9Z" data-name="Path 47540" id="Path_47540"></path>
        <line stroke-width="1.75" stroke="#fff" fill="none" transform="translate(250.929 42.195)" x2="7.056" y1="18.139" data-name="Line 4288" id="Line_4288"></line>
        <line stroke-width="1.75" stroke="#fff" fill="none" transform="translate(259.848 46.505)" x2="8.242" y1="17.632" data-name="Line 4289" id="Line_4289"></line>
        <line stroke-width="1.75" stroke="#fff" fill="none" transform="translate(268.499 51.47)" x2="9.389" y1="17.049" data-name="Line 4290" id="Line_4290"></line>
        <line stroke-width="1.75" stroke="#fff" fill="none" transform="translate(276.824 57.106)" x2="10.492" y1="16.393" data-name="Line 4291" id="Line_4291"></line>
        <path stroke-width="1.75" stroke="#fff" fill="none" transform="translate(-384.725 -51.912)" d="M701.229,162.69a157.288,157.288,0,0,0-14.921-17.437,155.381,155.381,0,0,0-17.474-14.878l29.613-40.691a196.033,196.033,0,0,1,43.4,43.3Z" data-name="Path 47541" id="Path_47541"></path>
        <line stroke-width="1.75" stroke="#fff" fill="none" transform="translate(290.454 68.236)" x2="12.286" y1="15.095" data-name="Line 4292" id="Line_4292"></line>
        <line stroke-width="1.75" stroke="#fff" fill="none" transform="translate(297.77 75.451)" x2="13.249" y1="14.258" data-name="Line 4293" id="Line_4293"></line>
        <line stroke-width="1.75" stroke="#fff" fill="none" transform="translate(304.653 83.195)" x2="14.154" y1="13.36" data-name="Line 4294" id="Line_4294"></line>
        <line stroke-width="1.75" stroke="#fff" fill="none" transform="translate(311.111 91.398)" x2="14.998" y1="12.404" data-name="Line 4295" id="Line_4295"></line>
        <path stroke-width="1.75" stroke="#fff" fill="none" transform="translate(-319.924 -90.175)" d="M617.576,214.739l11.671-8.534a148.4,148.4,0,0,0-14.024-16.391A146.505,146.505,0,0,0,598.8,175.832a131.485,131.485,0,0,0-18.363-11.278l-2.4-1.232-.6-.308-.615-.275-1.229-.552-2.455-1.11-1.226-.558c-.205-.092-.408-.19-.614-.277l-.627-.245-5.012-1.977-.626-.247-.638-.214-1.277-.429-2.551-.863-4.5,13.742" data-name="Path 47542" id="Path_47542"></path>
        <line stroke-width="1.75" stroke="#fff" fill="none" transform="translate(270.366 85.657)" x2="8.508" y1="11.69" data-name="Line 4296" id="Line_4296"></line>
        <path stroke-width="1.75" stroke="#fff" fill="none" transform="translate(-429.024 -111.412)" d="M766.659,263.489c-.622-1.808-1.21-3.628-1.852-5.429l-2.106-5.336c-.33-.9-.735-1.765-1.132-2.635l-1.182-2.614c-.4-.868-.77-1.751-1.194-2.608l-1.311-2.553c-1.675-3.441-3.647-6.726-5.57-10.033l-3.1-4.833c-.5-.819-1.079-1.58-1.629-2.364l-1.664-2.339,40.759-29.52,2.23,3.137c.735,1.051,1.5,2.082,2.179,3.173l4.154,6.485c2.607,4.424,5.217,8.851,7.489,13.463l1.749,3.434c.567,1.152,1.077,2.333,1.615,3.5l1.587,3.514c.528,1.171,1.062,2.34,1.518,3.543l2.826,7.176c.87,2.419,1.673,4.863,2.5,7.3Z" data-name="Path 47543" id="Path_47543"></path>
        <line stroke-width="1.75" stroke="#fff" fill="none" transform="translate(321.406 107.39)" x2="16.358" y1="10.546" data-name="Line 4297" id="Line_4297"></line>
        <line stroke-width="1.75" stroke="#fff" fill="none" transform="translate(326.406 116.803)" x2="17.018" y1="9.445" data-name="Line 4298" id="Line_4298"></line>
        <line stroke-width="1.75" stroke="#fff" fill="none" transform="translate(330.83 126.579)" x2="17.605" y1="8.3" data-name="Line 4299" id="Line_4299"></line>
        <line stroke-width="1.75" stroke="#fff" fill="none" transform="translate(334.654 136.674)" x2="18.116" y1="7.116" data-name="Line 4300" id="Line_4300"></line>
        <path stroke-width="1.75" stroke="#fff" fill="none" transform="translate(-457.042 -185.345)" d="M801.871,382.592a161.221,161.221,0,0,0-1.829-22.883l-1.009-5.649c-.142-.947-.4-1.869-.606-2.8l-.645-2.795c-.225-.929-.4-1.87-.665-2.79l-.787-2.758c-.538-1.835-.991-3.7-1.652-5.492l47.866-15.542c.864,2.424,1.508,4.915,2.225,7.384l1.046,3.713c.345,1.238.6,2.5.9,3.748l.867,3.757c.275,1.256.6,2.5.807,3.769l1.355,7.589a211.277,211.277,0,0,1,2.448,30.639Z" data-name="Path 47544" id="Path_47544"></path>
        <line stroke-width="1.75" stroke="#fff" fill="none" transform="translate(339.906 154.747)" x2="18.813" y1="4.989" data-name="Line 4301" id="Line_4301"></line>
        <line stroke-width="1.75" stroke="#fff" fill="none" transform="translate(342.074 165.455)" x2="19.102" y1="3.731" data-name="Line 4302" id="Line_4302"></line>
        <line stroke-width="1.75" stroke="#fff" fill="none" transform="translate(343.596 176.303)" x2="19.307" y1="2.462" data-name="Line 4303" id="Line_4303"></line>
        <line stroke-width="1.75" stroke="#fff" fill="none" transform="translate(344.523 187.235)" x2="19.427" y1="1.192" data-name="Line 4304" id="Line_4304"></line>
        <path stroke-width="1.75" stroke="#fff" fill="none" transform="translate(-403.467 -158.347)" d="M724.94,355.647l14.458-.033a152.29,152.29,0,0,0-1.72-21.512l-.948-5.307c-.131-.89-.378-1.755-.57-2.632l-.606-2.625c-.212-.872-.376-1.757-.623-2.621l-.741-2.589c-.507-1.722-.926-3.472-1.55-5.157-.586-1.7-1.136-3.407-1.737-5.1l-1.978-5.011c-.308-.844-.69-1.658-1.064-2.475l-1.111-2.455c-.376-.815-.721-1.646-1.12-2.451l-1.234-2.4c-1.57-3.235-3.429-6.317-5.231-9.426l-2.913-4.541c-.464-.771-1.014-1.484-1.531-2.221l-1.564-2.2-11.71,8.48" data-name="Path 47545" id="Path_47545"></path>
        <line stroke-width="1.75" stroke="#fff" fill="none" transform="translate(315.422 154.824)" x2="13.752" y1="4.465" data-name="Line 4305" id="Line_4305"></line>
      </g>
    </g>
  </g>
</svg>
