<svg height="484" width="2416" xmlns="http://www.w3.org/2000/svg" version="1.1">
<path transform="translate(1881,147)" fill="#000000" d="M0 0 C2.40956116 -0.0919342 2.40956116 -0.0919342 5 0 C6.44702148 1.47094727 6.44702148 1.47094727 7.62109375 3.56640625 C8.07379639 4.34951172 8.52649902 5.13261719 8.99291992 5.93945312 C9.70798706 7.23786133 9.70798706 7.23786133 10.4375 8.5625 C11.50394767 10.41869361 12.57170599 12.2741347 13.640625 14.12890625 C14.19298828 15.09973145 14.74535156 16.07055664 15.31445312 17.07080078 C18.01727841 21.76786014 20.85447866 26.38072374 23.6875 31 C24.86906638 32.9371483 26.05004031 34.87465807 27.23046875 36.8125 C27.83938965 37.81152344 28.44831055 38.81054688 29.07568359 39.83984375 C32.55654658 45.55619626 36.0277918 51.27838824 39.5 57 C44.6609238 65.50350148 49.8261426 74.00435886 55 82.5 C60.53918236 91.59551654 66.06777983 100.69742733 71.59326172 109.80126953 C76.94715352 118.62212395 82.30739978 127.43907949 87.67602539 136.25097656 C90.9248667 141.58513151 94.16674251 146.92343344 97.40234375 152.265625 C98.5421894 154.1465942 99.68210374 156.02752176 100.82202148 157.90844727 C101.55131221 159.11243938 102.28017153 160.31669294 103.00854492 161.52124023 C107.57731389 169.07674711 112.22429705 176.57341282 117 184 C119.24117242 181.27006747 121.35348806 178.64423978 123.015625 175.5234375 C123.37100342 174.86730469 123.72638184 174.21117187 124.0925293 173.53515625 C124.47449463 172.82230469 124.85645996 172.10945312 125.25 171.375 C129.55819296 163.47870599 134.08149379 155.72593616 138.6875 148 C144.70560137 137.89987796 150.63412972 127.75314396 156.49487305 117.56054688 C161.20831463 109.36455062 165.963499 101.193835 170.73535156 93.03173828 C174.97853176 85.76740426 179.18131134 78.48049092 183.375 71.1875 C189.16345907 61.12689339 195.05277006 51.1298745 200.99047852 41.15673828 C204.44422769 35.34582965 207.86891331 29.52029401 211.23828125 23.66015625 C211.75489822 22.76174515 211.75489822 22.76174515 212.2819519 21.84518433 C213.93158005 18.97364203 215.57647308 16.09953183 217.21679688 13.22265625 C217.80138672 12.20171875 218.38597656 11.18078125 218.98828125 10.12890625 C219.75458862 8.78421265 219.75458862 8.78421265 220.53637695 7.41235352 C221.01937256 6.61627686 221.50236816 5.8202002 222 5 C222.68098755 3.85132446 222.68098755 3.85132446 223.37573242 2.67944336 C225 1 225 1 227.60151672 0.89503479 C228.3930162 0.92967331 229.18451569 0.96431183 230 1 C230.23411779 2.78601985 230.23411779 2.78601985 230.47296524 4.60812092 C234.18250678 32.90283783 237.90501384 61.19582899 241.64338906 89.48675035 C242.10398855 92.97251828 242.56447912 96.45830059 243.02490234 99.9440918 C243.16239207 100.98498354 243.16239207 100.98498354 243.30265936 102.04690339 C244.78453048 113.26768503 246.25758479 124.48960716 247.72735646 135.71197931 C249.23683532 147.23600183 250.75603248 158.75871243 252.28362441 170.280348 C253.14084868 176.74818203 253.99369519 183.2165248 254.83600616 189.68631935 C255.62954932 195.78044084 256.43487748 201.87289053 257.24912453 207.96427917 C257.5453129 210.1956983 257.83725535 212.42768593 258.12454033 214.66026878 C259.99598379 234.49575348 259.99598379 234.49575348 270 251 C275.18996387 254.44061037 279.27919927 255.70910625 285.4375 256.25 C286.16904297 256.32734375 286.90058594 256.4046875 287.65429688 256.484375 C289.43475885 256.6705671 291.21723355 256.83734664 293 257 C293 258.65 293 260.3 293 262 C256.37 262 219.74 262 182 262 C182 260.35 182 258.7 182 257 C182.73605469 256.96261719 183.47210937 256.92523438 184.23046875 256.88671875 C191.67141422 256.54963592 191.67141422 256.54963592 198 253 C204.00244067 244.67190424 200.9111841 232.27392965 199.82250977 222.61621094 C199.63472458 220.87476051 199.63472458 220.87476051 199.44314575 219.09812927 C199.03276964 215.30942607 198.61236585 211.52191567 198.19140625 207.734375 C197.90185199 205.08739311 197.61276537 202.44036379 197.32420349 199.79327393 C196.72123102 194.27228546 196.1127502 188.75192626 195.50073242 183.23193359 C194.7928838 176.84712051 194.09320275 170.46145256 193.39791828 164.07525992 C192.72719467 157.91582461 192.05149198 151.75694621 191.37324333 145.59833527 C191.08541311 142.98125127 190.79875713 140.36403787 190.51327705 137.74669647 C190.11550531 134.10765136 189.71203431 130.46928475 189.30688477 126.83105469 C189.18892044 125.74233566 189.07095612 124.65361664 188.94941711 123.53190613 C188.83865845 122.54803421 188.72789978 121.56416229 188.61378479 120.55047607 C188.51884011 119.69073559 188.42389544 118.8309951 188.32607365 117.94520187 C188.19347576 115.9999839 188.19347576 115.9999839 187 115 C186.62415771 115.65145996 186.24831543 116.30291992 185.86108398 116.97412109 C153.25 173.5 153.25 173.5 151.3737793 176.75195312 C150.12766031 178.91200093 148.88172839 181.07215667 147.63598633 183.23242188 C144.45315591 188.75127079 141.26679089 194.26803002 138.07421875 199.78125 C134.37014259 206.18025084 130.67984875 212.58703891 127 219 C126.49533203 219.87720703 125.99066406 220.75441406 125.47070312 221.65820312 C116.91298362 236.57845208 108.92961903 251.63342871 107 269 C104.73413086 269.34667969 104.73413086 269.34667969 102 269 C100.08032227 266.69238281 100.08032227 266.69238281 98.25390625 263.453125 C97.91686172 262.86968323 97.5798172 262.28624146 97.2325592 261.68511963 C96.51129466 260.4356876 95.79736674 259.18199679 95.09014893 257.92456055 C93.67086232 255.41893683 92.19225687 252.95121965 90.71148682 250.4815979 C89.5690213 248.5746186 88.43492375 246.66289676 87.30322266 244.74951172 C84.83634546 240.57880862 82.36626289 236.41001546 79.89453125 232.2421875 C79.47810364 231.53994049 79.06167603 230.83769348 78.63262939 230.11416626 C74.81926658 223.68752779 70.9763153 217.27897256 67.125 210.875 C62.11115374 202.53446245 57.13347394 194.17384342 52.18945312 185.79174805 C39.68543056 164.59411148 27.10229531 143.44380579 14.41601562 122.35473633 C12.94235871 119.90414651 11.47086833 117.45226437 10 115 C6.68687973 141.59962273 3.69317976 168.23757043 0.75387573 194.88070679 C0.33590134 198.66639485 -0.08676214 202.45151497 -0.51339722 206.23623657 C-1.02514628 210.77865096 -1.52706063 215.32205223 -2.02188301 219.86634064 C-2.20826778 221.56346011 -2.39798162 223.26021775 -2.59126091 224.95656586 C-4.81731559 238.88924347 -4.81731559 238.88924347 -1.1875 251.9375 C2.4013935 255.32131387 5.36911653 256.23966709 10.25 256.625 C11.14203125 256.69976562 12.0340625 256.77453125 12.953125 256.8515625 C13.62859375 256.90054687 14.3040625 256.94953125 15 257 C15 258.65 15 260.3 15 262 C-10.41 262 -35.82 262 -62 262 C-62 260.35 -62 258.7 -62 257 C-61.23816406 256.97421875 -60.47632813 256.9484375 -59.69140625 256.921875 C-50.78045715 256.43238466 -42.36977909 254.7236557 -36 248 C-31.42597356 240.73225086 -29.93227836 233.71695028 -28.94946289 225.28613281 C-28.78845282 224.0355584 -28.62744274 222.78498398 -28.46155357 221.49651337 C-28.10986391 218.7639386 -27.76971114 216.03026399 -27.43853569 213.29512787 C-26.89875164 208.83806443 -26.33338063 204.38445163 -25.76490784 199.93096924 C-25.04343011 194.26419106 -24.32868723 188.59663052 -23.62171668 182.92802405 C-22.18920716 171.44394111 -20.70956325 159.96630654 -19.21435547 148.49023438 C-18.97457207 146.64881706 -18.73479357 144.80739911 -18.49501991 142.96598053 C-18.13185922 140.17727815 -17.76866224 137.38858053 -17.40533555 134.59989977 C-16.05931234 124.26543869 -14.72369645 113.92963668 -13.38867188 103.59375 C-13.14461452 101.70463751 -12.9005521 99.81552567 -12.6564846 97.92641449 C-12.28874991 95.08001957 -11.92102912 92.23362285 -11.55334914 89.38722086 C-10.28922178 79.60110382 -9.02384697 69.81514817 -7.75841987 60.02919912 C-5.17099617 40.01963192 -2.5849793 20.00988313 0 0 Z"></path>
<path transform="translate(1121,147)" fill="#000000" d="M0 0 C3.09926278 -0.31907651 4.54065646 -0.33825216 7.09301758 1.54125977 C7.77001709 2.25080811 8.4470166 2.96035645 9.14453125 3.69140625 C10.28438477 4.86219727 10.28438477 4.86219727 11.44726562 6.05664062 C12.22779297 6.88357422 13.00832031 7.71050781 13.8125 8.5625 C15.3581815 10.17037154 16.90633738 11.77586829 18.45703125 13.37890625 C19.21709473 14.16539551 19.9771582 14.95188477 20.76025391 15.76220703 C23.42997331 18.42959836 26.23815973 20.88356792 29.10424805 23.33569336 C32.22173283 26.07257601 35.09941174 29.03706878 38 32 C43.34368868 37.41599301 43.34368868 37.41599301 49 42.5 C53.55858949 46.35122216 57.67102171 50.64663131 61.86499023 54.88452148 C65.41457818 58.45698233 69.03157879 61.84604401 72.87890625 65.09765625 C76.47814366 68.32570159 79.82668211 71.8077371 83.22509766 75.24462891 C86.0475639 78.086724 88.87583732 80.84990122 91.9375 83.4375 C95.84269979 86.74572658 99.40280926 90.36513741 103 94 C108.34465194 99.41494868 108.34465194 99.41494868 114 104.5 C118.55937735 108.35188776 122.67246864 112.64812208 126.8671875 116.88671875 C129.82940843 119.86800977 132.78707598 122.78563316 136 125.5 C140.55937735 129.35188776 144.67246864 133.64812208 148.8671875 137.88671875 C151.82940843 140.86800977 154.78707598 143.78563316 158 146.5 C162.54992244 150.34389999 166.65510932 154.63022985 170.84082031 158.86035156 C174.61402167 162.6581207 178.45205001 166.31172914 182.546875 169.765625 C184 171 184 171 186 173 C186.09355286 154.24983004 186.16403279 135.49970763 186.20724869 116.74935246 C186.22785034 108.0427017 186.25592493 99.33619619 186.30175781 90.62963867 C186.34169918 83.03861641 186.36745023 75.44769938 186.37635398 67.85657495 C186.38155642 63.83924385 186.39373358 59.82221371 186.42292023 55.80497932 C186.45020501 52.01860101 186.45841889 48.23264573 186.45243073 44.44617844 C186.45352516 43.06152352 186.4614013 41.67685349 186.4768219 40.29228401 C186.57740243 30.7900271 186.02614425 23.20915081 179.25 16.125 C172.43185394 11.66698143 166.07037249 10.47959181 158 10 C158 8.68 158 7.36 158 6 C194.63 6 231.26 6 269 6 C269 7.32 269 8.64 269 10 C268.0821875 10.08636719 267.164375 10.17273438 266.21875 10.26171875 C257.80327606 11.22525516 251.23861565 12.25019452 245.4453125 18.7421875 C241.13354564 24.41812919 240.85176722 29.19285606 240.85955811 36.24050903 C240.85658698 37.07904446 240.85361586 37.9175799 240.8505547 38.78152549 C240.8418708 41.59671066 240.84035961 44.41185328 240.83886719 47.22705078 C240.83423816 49.24454336 240.82921338 51.26203507 240.82382202 53.27952576 C240.81068918 58.77052861 240.80424932 64.26151923 240.79981136 69.75253534 C240.79687719 73.19274083 240.79277135 76.632943 240.78830719 80.07314682 C240.77461923 90.86296483 240.76496348 101.65277523 240.7611053 112.44260132 C240.75664536 124.8448005 240.73919967 137.24688833 240.7101047 149.64905369 C240.68834753 159.26220229 240.67839332 168.87531993 240.67706418 178.48849285 C240.67602453 184.21481603 240.67030058 189.94103474 240.65224457 195.6673317 C240.40208778 228.40307576 240.40208778 228.40307576 243.72981644 260.9227581 C244 263 244 263 244 267 C240.99073499 267.28968453 239.49055011 267.35530023 236.9987793 265.55053711 C236.36367432 264.8828833 235.72856934 264.21522949 235.07421875 263.52734375 C234.35943359 262.79193359 233.64464844 262.05652344 232.90820312 261.29882812 C232.17537109 260.51958984 231.44253906 259.74035156 230.6875 258.9375 C229.23561693 257.42333776 227.78120379 255.91159731 226.32421875 254.40234375 C225.6060498 253.65774902 224.88788086 252.9131543 224.14794922 252.14599609 C221.50528084 249.50573068 218.71777543 247.07958343 215.88208008 244.65063477 C212.94429455 242.07411798 210.22947247 239.29348725 207.5 236.5 C204.1122034 233.06962004 200.74777911 229.67715525 197.0625 226.5625 C192.48648238 222.686001 188.35013799 218.3747532 184.13525391 214.11572266 C180.58558242 210.54318081 176.96851023 207.15403123 173.12109375 203.90234375 C169.52185634 200.67429841 166.17331789 197.1922629 162.77490234 193.75537109 C159.9524361 190.913276 157.12416268 188.15009878 154.0625 185.5625 C149.48648238 181.686001 145.35013799 177.3747532 141.13525391 173.11572266 C137.58558242 169.54318081 133.96851023 166.15403123 130.12109375 162.90234375 C126.52262539 159.67498815 123.1747647 156.19375027 119.77709961 152.75756836 C116.93342314 149.89409544 114.08116073 147.11115316 111 144.5 C107.29621434 141.36119859 103.91070855 137.94937324 100.5 134.5 C97.10993882 131.07155172 93.74806018 127.6773928 90.0625 124.5625 C85.49199341 120.69066957 81.36026185 116.38518871 77.15063477 112.13110352 C73.50884498 108.4656945 69.82257647 104.9281767 65.84375 101.625 C64.11948166 100.10530587 62.50563646 98.52699018 60.88476562 96.8984375 C60.34452759 96.35622559 59.80428955 95.81401367 59.24768066 95.25537109 C58.83594604 94.84109863 58.42421143 94.42682617 58 94 C57.8830235 112.86325761 57.79494186 131.72644127 57.74093914 150.5899868 C57.71519446 159.34934005 57.68011577 168.1084675 57.62280273 176.86767578 C57.57285291 184.50521998 57.54068184 192.14260058 57.52955753 199.7803036 C57.52305825 203.82177341 57.50786214 207.86277534 57.47134972 211.9040947 C57.43720654 215.71434012 57.42698345 219.52392856 57.43446159 223.33431244 C57.43309515 224.72662308 57.42327159 226.11895755 57.40397263 227.5111351 C57.29299114 235.93606687 57.81258503 243.06008636 63 250 C68.34801328 254.39159555 73.31129772 256.04493639 80.1875 256.5625 C81.81751953 256.68818359 81.81751953 256.68818359 83.48046875 256.81640625 C84.31191406 256.87699219 85.14335938 256.93757813 86 257 C86 258.65 86 260.3 86 262 C49.37 262 12.74 262 -25 262 C-25 260.35 -25 258.7 -25 257 C-24.2265625 256.97421875 -23.453125 256.9484375 -22.65625 256.921875 C-13.91462575 256.44584596 -7.68111422 255.20520103 -1.625 248.625 C2.8844826 243.30935291 3.29293746 237.32275971 3.25396729 230.59922791 C3.25708727 229.76770645 3.26020725 228.936185 3.26342177 228.07946593 C3.27138224 225.30021907 3.26508536 222.52119175 3.25878906 219.74194336 C3.2615001 217.74559908 3.26506166 215.74925581 3.26940918 213.75291443 C3.27853085 208.33052011 3.27498746 202.90820188 3.26865101 197.48580623 C3.26357938 191.79412939 3.26828667 186.10245896 3.27142334 180.41078186 C3.27506403 170.83658688 3.27026582 161.26242272 3.26074219 151.68823242 C3.24990406 140.66630526 3.25334887 129.64445236 3.264395 118.62252706 C3.27352086 109.13255336 3.27472603 99.64260182 3.26951766 90.15262514 C3.2664209 84.49750434 3.2659238 78.84241821 3.27259064 73.18729973 C3.2784392 67.85289803 3.27423236 62.51859012 3.26280212 57.18419838 C3.26019314 55.24343393 3.26085473 53.30266137 3.26532745 51.36190033 C3.29141123 38.87603781 2.58722131 26.63252964 1.23401976 14.21964848 C0.73512176 9.48766265 0.37317919 4.74330392 0 0 Z"></path>
<path transform="translate(206,153)" fill="#000000" d="M0 0 C34.98 0 69.96 0 106 0 C106 1.32 106 2.64 106 4 C104.71416016 4.14695313 104.71416016 4.14695313 103.40234375 4.296875 C92.2317663 5.68961943 92.2317663 5.68961943 83.84776306 12.69850159 C80.64997209 18.602509 81.45264337 25.60903625 81.49829102 32.13647461 C81.49450414 33.67803439 81.48900107 35.21959076 81.48191833 36.76113892 C81.46798379 40.93743069 81.47912404 45.11330944 81.49562955 49.2895782 C81.50952795 53.67698754 81.50301368 58.06437404 81.49949646 62.45179749 C81.49679555 69.82836512 81.51025088 77.20476996 81.53344727 84.58129883 C81.55996747 93.07279727 81.56183196 101.56402208 81.5500589 110.05554765 C81.53921696 118.2562651 81.54552389 126.45688492 81.55961418 134.65759468 C81.56532764 138.13046172 81.56532805 141.60325623 81.56054878 145.07612419 C81.55571884 149.18436603 81.56612496 153.29231495 81.58750343 157.40050125 C81.59299398 158.89506734 81.59360941 160.38966204 81.58855057 161.88422966 C81.51949617 185.24412425 87.4389241 208.68232672 104 226 C119.26042511 239.88945908 137.59795407 243.99954743 157.75292969 243.15234375 C175.77652146 241.93040532 191.63479505 234.44669044 204.09375 221.375 C219.86151526 201.72991541 222.14054278 177.54950086 222.16113281 153.28637695 C222.16577417 151.85095089 222.17080054 150.41552603 222.17617798 148.98010254 C222.18916565 145.11876215 222.19571833 141.25743902 222.20018864 137.39608026 C222.20313782 134.97777281 222.20724561 132.55946991 222.21169281 130.14116478 C222.22532339 122.556627 222.23501518 114.97209982 222.2388947 107.38755065 C222.24338356 98.6635849 222.26098839 89.93977517 222.2898953 81.21585685 C222.31154216 74.4461003 222.32160036 67.67638761 222.32293582 60.90659684 C222.32398044 56.8738658 222.32981657 52.84128233 222.34775543 48.80858803 C222.36429144 45.01880077 222.36636505 41.22927134 222.35761642 37.43946075 C222.35684937 36.05481205 222.36114479 34.67014912 222.37107468 33.28553581 C222.47063908 20.91533115 222.47063908 20.91533115 217.44921875 9.87890625 C211.2208267 5.22487494 204.61206714 4.62008412 197 4 C197 2.68 197 1.36 197 0 C222.74 0 248.48 0 275 0 C275 1.32 275 2.64 275 4 C273.71416016 4.14695313 273.71416016 4.14695313 272.40234375 4.296875 C261.09938913 5.77284115 261.09938913 5.77284115 252.625 12.9375 C250.05846758 17.77442649 249.87411414 22.07696446 249.86196899 27.49862671 C249.85651566 28.81325897 249.85106232 30.12789124 249.84544373 31.48236084 C249.84432403 32.93273921 249.84327349 34.38311763 249.84228516 35.83349609 C249.83761382 37.36652776 249.83246972 38.89955805 249.82688904 40.43258667 C249.81562402 43.73209884 249.80718184 47.03160206 249.80076981 50.33112717 C249.79005721 55.56124954 249.76980069 60.79130795 249.74765015 66.02139282 C249.68584515 80.89362635 249.63183624 95.76585668 249.59863281 110.63818359 C249.58021077 118.85378999 249.55117658 127.06928958 249.5106281 135.28481734 C249.48967677 139.62521169 249.47411791 143.9654721 249.47182083 148.30591965 C249.46965245 152.39854211 249.45356355 156.49088625 249.42743111 160.58342361 C249.42031791 162.07356474 249.41809762 163.5637399 249.42153358 165.05389404 C249.47226185 191.27037389 241.15798296 215.41041816 222.66015625 234.40234375 C208.50938759 247.81919896 190.87032279 255.18492337 172 259 C170.89011719 259.226875 169.78023437 259.45375 168.63671875 259.6875 C133.3371424 265.55040541 90.66309613 260.45906655 60.75 239.75 C45.90761015 228.94203766 35.46573796 215.28574524 29.5625 197.875 C29.32764893 197.1840625 29.09279785 196.493125 28.85083008 195.78125 C25.20373325 184.15806989 24.70799173 172.3231365 24.74462891 160.23901367 C24.74187164 158.70329605 24.73818732 157.16757987 24.73365784 155.63186646 C24.7256123 152.35264845 24.72336033 149.07349834 24.72560501 145.79427147 C24.7284617 140.60321458 24.71400164 135.41229114 24.69662476 130.2212677 C24.64981266 115.46987869 24.62564599 100.71850115 24.61914062 85.96704102 C24.61538661 77.79867675 24.59733965 69.63046601 24.56404626 61.46216756 C24.54388758 56.30686591 24.54143331 51.15196159 24.55232644 45.99663675 C24.55493965 42.78835256 24.54090177 39.5802985 24.52224541 36.37207413 C24.51693962 34.8902667 24.51839255 33.40841647 24.52728081 31.92662621 C24.57156828 23.89302344 24.49701009 17.80789886 20 11 C14.32605169 5.32605169 7.64454013 4.64553894 0 4 C0 2.68 0 1.36 0 0 Z"></path>
<path transform="translate(2364,146)" fill="#000000" d="M0 0 C0 21.45 0 42.9 0 65 C-1.32 65 -2.64 65 -4 65 C-4.08636719 64.05640625 -4.17273437 63.1128125 -4.26171875 62.140625 C-5.44284718 51.34792856 -7.50266392 41.33957825 -15 33 C-17.16095011 31.26076475 -17.16095011 31.26076475 -19.5625 29.875 C-20.32691406 29.39804688 -21.09132813 28.92109375 -21.87890625 28.4296875 C-31.39179391 24.0720944 -40.73775965 23.53396856 -51.07421875 23.48828125 C-52.32126587 23.47164429 -53.56831299 23.45500732 -54.85314941 23.43786621 C-59.46443205 23.38049346 -64.0759965 23.34792108 -68.6875 23.3125 C-84.1871875 23.1578125 -84.1871875 23.1578125 -100 23 C-100 57.65 -100 92.3 -100 128 C-86.944375 127.87625 -86.944375 127.87625 -73.625 127.75 C-69.53279053 127.72631348 -69.53279053 127.72631348 -65.35791016 127.70214844 C-63.16827321 127.67275309 -60.97865486 127.64192277 -58.7890625 127.609375 C-57.67426514 127.60824707 -56.55946777 127.60711914 -55.41088867 127.60595703 C-46.02868733 127.43616217 -37.52410718 125.42212142 -30.53125 118.80859375 C-24.38268151 111.54638148 -22.9694682 103.23165241 -22 94 C-20.68 94 -19.36 94 -18 94 C-18 122.05 -18 150.1 -18 179 C-19.32 179 -20.64 179 -22 179 C-22.08636719 178.17757812 -22.17273437 177.35515625 -22.26171875 176.5078125 C-23.41321237 167.35924854 -25.2768145 159.16081341 -32.1875 152.625 C-40.45121236 146.53083058 -48.73614152 145.40079634 -58.7890625 145.390625 C-59.84053467 145.37499512 -60.89200684 145.35936523 -61.9753418 145.34326172 C-65.85833574 145.29113347 -69.74172122 145.27247719 -73.625 145.25 C-82.32875 145.1675 -91.0325 145.085 -100 145 C-100 178.33 -100 211.66 -100 246 C-90.739375 245.9175 -81.47875 245.835 -71.9375 245.75 C-69.04605225 245.73420898 -66.15460449 245.71841797 -63.17553711 245.70214844 C-41.02466722 245.47320082 -21.81177456 242.92548661 -5 227 C6.00401347 215.40812605 12.52774007 201.79997572 18 187 C19.32 187 20.64 187 22 187 C21.46073826 195.32666682 19.74695399 203.2845174 17.875 211.3984375 C17.56442748 212.76450118 17.2543784 214.13068396 16.94482422 215.49697876 C16.13514947 219.06400071 15.31822504 222.6293232 14.49975586 226.19433594 C13.66707139 229.82772027 12.84178362 233.46278368 12.015625 237.09765625 C7.35642908 257.57428369 7.35642908 257.57428369 6 263 C-56.7 263 -119.4 263 -184 263 C-184 261.35 -184 259.7 -184 258 C-182.62328125 257.88785156 -182.62328125 257.88785156 -181.21875 257.7734375 C-173.38037802 256.93361193 -167.42706161 256.01487936 -162 250 C-157.72767358 244.08639862 -156.85050779 238.82871854 -156.84609985 231.69615173 C-156.8417176 230.83901457 -156.83733535 229.9818774 -156.8328203 229.09876639 C-156.81942462 226.21550026 -156.81325165 223.33226471 -156.80712891 220.44897461 C-156.79922842 218.38596457 -156.7909595 216.32295592 -156.78234863 214.25994873 C-156.75611802 207.47409385 -156.74081799 200.68823277 -156.7265625 193.90234375 C-156.72120288 191.56634581 -156.71582537 189.23034791 -156.71043015 186.89435005 C-156.68879815 177.17583088 -156.67006225 167.45731337 -156.65880775 157.73877621 C-156.64257487 143.81273291 -156.60941647 129.88696891 -156.55240691 115.9610309 C-156.51368839 106.16896306 -156.49417266 96.37696986 -156.48888719 86.58482748 C-156.48523583 80.73707291 -156.47323729 74.88961616 -156.44078445 69.0419445 C-156.41067127 63.53679252 -156.40440385 58.03211806 -156.41616821 52.52690125 C-156.41638869 50.51054668 -156.4081055 48.49416976 -156.39051437 46.47789192 C-155.91674016 31.88083442 -155.91674016 31.88083442 -162 19 C-168.45760054 12.91057595 -175.34110483 11.77622244 -184 11 C-184 9.68 -184 8.36 -184 7 C-183.29360319 6.99668985 -182.58720638 6.99337971 -181.85940361 6.98996925 C-164.56870629 6.90829214 -147.27809635 6.81605928 -129.9875164 6.71247292 C-121.62548473 6.662624 -113.26346153 6.61618125 -104.90136719 6.578125 C-97.60205887 6.54489649 -90.30282219 6.50490255 -83.00359356 6.45720994 C-79.14862854 6.4322469 -75.29370914 6.41038188 -71.43868637 6.39665604 C-49.15997019 6.31406736 -27.37130714 5.84931962 -5.578125 0.8046875 C-2 0 -2 0 0 0 Z"></path>
<path transform="translate(609.717529296875,149.264404296875)" fill="#000000" d="M0 0 C12.37783849 1.25254045 24.85265996 1.41504497 37.2824707 1.7355957 C37.37724118 8.3724909 37.02376092 14.85217838 36.4074707 21.45825195 C36.31868652 22.44433945 36.22990234 23.43042694 36.13842773 24.44639587 C35.85686769 27.56398373 35.56976219 30.68103132 35.2824707 33.7980957 C35.08939414 35.92501543 34.89668222 38.0519683 34.7043457 40.17895508 C34.23460191 45.36489245 33.7603168 50.55039896 33.2824707 55.7355957 C30.8074707 56.2305957 30.8074707 56.2305957 28.2824707 56.7355957 C28.12391602 55.84098633 27.96536133 54.94637695 27.80200195 54.0246582 C25.63830064 42.81166467 22.70547536 32.86153339 13.2824707 25.7355957 C-2.44423634 15.48553326 -20.45192246 13.20747434 -38.7175293 16.8605957 C-44.93766219 18.53463657 -50.2945938 21.30137679 -55.7175293 24.7355957 C-56.6456543 25.3130957 -57.5737793 25.8905957 -58.5300293 26.4855957 C-64.82749814 32.96299223 -68.69394319 41.05499657 -69.0925293 50.0480957 C-68.90458776 58.20696951 -65.71919691 64.59261875 -60.19018555 70.52075195 C-50.91245253 78.8311384 -39.953394 85.31770413 -29.42163086 91.89624023 C-19.82139776 97.89399447 -10.35786317 104.09850103 -0.90415955 110.32398987 C2.64399525 112.6604759 6.19830547 114.98723764 9.75671387 117.30807495 C12.1844594 118.8941542 14.60718645 120.48778189 17.02880859 122.08319092 C18.72368255 123.19696355 20.42388666 124.30261201 22.12426758 125.40795898 C38.22639315 136.05478696 51.02938749 148.70136313 56.5949707 167.6730957 C60.75503799 188.30188297 57.24243247 210.73669297 46.2824707 228.7355957 C32.39338387 248.42833668 12.23284693 257.97019447 -10.7175293 262.7355957 C-12.49450195 263.10491211 -12.49450195 263.10491211 -14.30737305 263.48168945 C-45.95349029 268.7379174 -85.51323321 265.09830676 -112.35424805 246.50512695 C-116.22949563 243.60349529 -117.38020619 241.57331011 -118.3269043 236.78637695 C-120.67876438 218.41834969 -118.19959298 195.45869123 -107.7175293 179.7355957 C-106.3975293 179.7355957 -105.0775293 179.7355957 -103.7175293 179.7355957 C-103.61956055 180.88415039 -103.5215918 182.03270508 -103.4206543 183.21606445 C-101.61156523 202.68480787 -96.60295002 219.16783324 -81.7175293 232.7355957 C-64.73863416 245.52970539 -44.49866444 249.56844696 -23.7175293 246.7355957 C-11.72169409 244.33642866 -0.36599723 239.68055019 7.2824707 229.7355957 C12.9305518 220.24388539 14.40568913 211.70857567 13.2824707 200.7355957 C6.77904847 180.48208076 -16.50458453 169.40170044 -33.22906494 158.48132324 C-38.10186817 155.29787618 -42.96372318 152.09777687 -47.8269043 148.8996582 C-48.77614777 148.27579224 -49.72539124 147.65192627 -50.70339966 147.00915527 C-58.27175274 142.03365855 -65.82909601 137.04368947 -73.3425293 131.9855957 C-74.74897705 131.05142822 -74.74897705 131.05142822 -76.18383789 130.09838867 C-93.1611142 118.60090027 -107.68597361 103.67062542 -112.3059082 83.16381836 C-115.54732807 64.04213271 -112.12090996 44.1416691 -101.7175293 27.7355957 C-88.21985821 9.51834552 -69.67330872 1.5828102 -47.83081055 -1.69799805 C-32.0694474 -3.40249793 -15.70661441 -1.68301805 0 0 Z"></path>
<path transform="translate(670,146)" fill="#000000" d="M0 0 C8.98461538 1.12307692 8.98461538 1.12307692 12 1.71875 C12.99 1.91017578 12.99 1.91017578 14 2.10546875 C15.33333333 2.36848958 16.66666667 2.63151042 18 2.89453125 C18.66 3.02214844 19.32 3.14976562 20 3.28125 C20.86625 3.45237305 20.86625 3.45237305 21.75 3.62695312 C27.63066304 4.60195889 33.31840539 5.12590628 39.28131104 5.14044189 C40.31170301 5.14489858 40.31170301 5.14489858 41.36291099 5.1494453 C43.64071642 5.15804397 45.91846875 5.15963302 48.19628906 5.16113281 C49.83987538 5.16576754 51.48346064 5.17079308 53.12704468 5.17617798 C57.57818471 5.18924767 62.02930969 5.19573721 66.48046589 5.20018864 C69.27070883 5.20313036 72.06094776 5.20723736 74.85118866 5.21169281 C83.60775235 5.22535831 92.36430676 5.23502754 101.12088037 5.2388947 C111.17822957 5.2433623 121.23544198 5.26085365 131.29274964 5.2898953 C139.09783263 5.31163854 146.90287751 5.3216058 154.70799041 5.32293582 C159.35425197 5.32397557 164.00038481 5.32970298 168.64661407 5.34775543 C197.68951442 5.6305741 197.68951442 5.6305741 226.25445557 0.89971924 C230 0 230 0 234 0 C234 21.12 234 42.24 234 64 C232.35 64 230.7 64 229 64 C228.96261719 63.17757812 228.92523437 62.35515625 228.88671875 61.5078125 C228.19989115 49.84521058 226.63702658 40.44329888 218 32 C208.37228473 24.783077 199.80064181 23.69995525 188.06640625 23.5859375 C186.21679543 23.55688828 186.21679543 23.55688828 184.32981873 23.5272522 C180.40744861 23.46767048 176.48504881 23.42115612 172.5625 23.375 C169.89645297 23.33786031 167.23046095 23.29774779 164.56445312 23.2578125 C158.04307633 23.16198641 151.52162623 23.0768765 145 23 C145.03718285 50.99027426 145.09706763 78.98042053 145.18390274 106.97058678 C145.22369471 119.96720967 145.25608647 132.963772 145.27099609 145.96044922 C145.28401171 157.28970116 145.31097431 168.61881984 145.35461307 179.94799674 C145.37722963 185.94549717 145.39291055 191.94283323 145.39188385 197.9403801 C145.39113737 203.589143 145.40908382 209.23754252 145.44116783 214.8862114 C145.44966411 216.95574282 145.45141863 219.02531502 145.44580269 221.09485626 C144.88638764 237.04903584 144.88638764 237.04903584 151.70807266 250.90761375 C157.86593177 256.79010781 164.84071646 257.38724748 173 258 C173 259.65 173 261.3 173 263 C136.04 263 99.08 263 61 263 C61 261.35 61 259.7 61 258 C61.70125 257.97421875 62.4025 257.9484375 63.125 257.921875 C71.5402778 257.41878774 77.60232364 255.94721916 83.375 249.5625 C87.91128072 244.10122349 88.29432376 238.9526194 88.2784729 232.12260437 C88.2842653 231.22811783 88.2900577 230.33363129 88.29602563 229.4120391 C88.31303048 226.4148743 88.31590257 223.41786344 88.31884766 220.4206543 C88.32814549 218.272157 88.33831394 216.12366333 88.34928894 213.97517395 C88.37661928 208.14095304 88.39174739 202.30675631 88.40471697 196.47248816 C88.42033419 190.37590236 88.44712891 184.27936605 88.4727478 178.18281555 C88.51956051 166.63739532 88.55629259 155.0919658 88.58942068 143.54649907 C88.62762443 130.40270902 88.67703918 117.25896863 88.72740483 104.11522043 C88.83076177 77.07685042 88.92000997 50.03844851 89 23 C81.2257716 23.04185505 73.45224834 23.11436284 65.6784668 23.20751953 C63.03758112 23.23562953 60.39661286 23.25689328 57.75561523 23.27099609 C53.94472276 23.29256311 50.1348128 23.33928702 46.32421875 23.390625 C45.15606125 23.39185364 43.98790375 23.39308228 42.78434753 23.39434814 C32.07041997 23.5829209 21.71082191 26.10357844 14 34 C6.8506107 43.49005796 5.73329029 52.42173232 5 64 C3.35 64 1.7 64 0 64 C0 42.88 0 21.76 0 0 Z"></path>
<path transform="translate(1460,146)" fill="#000000" d="M0 0 C11 2 11 2 15.09515381 2.83631897 C32.11309795 6.07852855 49.51812041 5.45839511 66.76739597 5.43590808 C70.48171705 5.43278019 74.19600139 5.43894825 77.91031718 5.44494683 C86.69008085 5.4589127 95.46974706 5.45749828 104.24951172 5.44604492 C113.2359133 5.43457933 122.22201587 5.44863149 131.20837808 5.4754414 C138.98915556 5.49776512 146.76984034 5.50419842 154.5506475 5.49836498 C159.16893167 5.49503276 163.78702456 5.49715587 168.40528107 5.51461601 C187.10192643 5.5787133 205.25853362 5.53113662 223.62183762 1.47284031 C226.72545734 0.85576028 229.86743264 0.44750962 233 0 C233 21.12 233 42.24 233 64 C231.68 64 230.36 64 229 64 C228.91363281 63.05640625 228.82726563 62.1128125 228.73828125 61.140625 C227.52424136 50.04719629 225.62243168 39.1962107 216.890625 31.39453125 C210.48031175 26.666263 203.07200156 23.78762669 195.08642578 23.68115234 C193.94569611 23.66128265 192.80496643 23.64141296 191.62966919 23.62094116 C190.41383148 23.60938995 189.19799377 23.59783875 187.9453125 23.5859375 C186.68862762 23.56657135 185.43194275 23.5472052 184.13717651 23.5272522 C180.81312312 23.47772276 177.48917663 23.43640102 174.16497803 23.39910889 C170.76613569 23.35894066 167.36745796 23.30790713 163.96875 23.2578125 C157.31260618 23.16190085 150.65639014 23.0768137 144 23 C144.06055499 50.72949358 144.13806955 78.45889502 144.23571491 106.18828392 C144.28066001 119.06382808 144.32007773 131.93934467 144.34643555 144.81494141 C144.36942594 156.03870072 144.40283579 167.26237265 144.44870156 178.48606265 C144.47261955 184.42764556 144.49135773 190.369142 144.49761391 196.31077194 C144.50367109 201.90695377 144.52369428 207.50291441 144.55427551 213.09901428 C144.5630455 215.14919625 144.56678048 217.19940713 144.56500816 219.24960709 C144.36811176 235.07725243 144.36811176 235.07725243 149.5625 249.8125 C156.11524317 255.69316695 163.32898622 257.79706138 172 258 C172 259.65 172 261.3 172 263 C135.37 263 98.74 263 61 263 C61 261.35 61 259.7 61 258 C62.25103516 257.88785156 62.25103516 257.88785156 63.52734375 257.7734375 C71.2269223 256.87383038 77.34943616 255.56513415 83 250 C87.50211312 243.47883337 88.14900807 237.12442276 88.15821838 229.35675049 C88.16315636 228.47536903 88.16809434 227.59398757 88.17318195 226.68589759 C88.18856253 223.72712374 88.19691912 220.7683716 88.20532227 217.80957031 C88.21490035 215.69077869 88.22491039 213.57198899 88.23532104 211.45320129 C88.26238374 205.69536956 88.28338595 199.93752961 88.30332303 194.17966938 C88.32517414 188.1645031 88.35256711 182.14936216 88.37937927 176.13421631 C88.42931798 164.7410467 88.47425246 153.34786303 88.51740164 141.9546659 C88.56676393 128.9850329 88.6216858 116.01542532 88.67708123 103.0458169 C88.79091937 76.36390165 88.89775444 49.68196201 89 23 C81.75780257 23.03828241 74.51610066 23.09796585 67.27430248 23.18390274 C63.91047086 23.223171 60.5468929 23.25545903 57.18286133 23.27099609 C53.30247739 23.29255778 49.42305944 23.33927925 45.54296875 23.390625 C44.35293747 23.39185364 43.16290619 23.39308228 41.93681335 23.39434814 C30.4818146 23.59242458 21.46419581 26.30910122 13.1640625 34.3984375 C6.07649568 42.91886981 4.97471929 53.35082804 4 64 C2.68 64 1.36 64 0 64 C0 42.88 0 21.76 0 0 Z"></path>
<path transform="translate(87,153)" fill="#000000" d="M0 0 C36.63 0 73.26 0 111 0 C111 1.32 111 2.64 111 4 C110.2265625 4.08636719 109.453125 4.17273438 108.65625 4.26171875 C100.29967621 5.38902883 94.74499869 7.35621749 88.6875 13.25 C84.46167454 20.13653038 83.56008144 27.01521413 83.62818909 34.96101379 C83.62436452 35.92395518 83.62053996 36.88689658 83.6165995 37.87901801 C83.60736235 41.08461621 83.61927593 44.28977704 83.63110352 47.49536133 C83.62863394 49.80231403 83.62479393 52.10926561 83.61968994 54.41621399 C83.61136594 59.37452246 83.61214777 64.33271602 83.61987495 69.29102516 C83.63147911 77.13764868 83.61927722 84.98412507 83.60325623 92.83073425 C83.58242673 103.83710809 83.56995196 114.84346054 83.56616211 125.84985352 C83.56591724 126.54740136 83.56567237 127.24494921 83.56542008 127.96363487 C83.56287524 135.74241949 83.56230695 143.52120286 83.56335449 151.29998779 C83.56368753 154.11966959 83.56397292 156.93935139 83.56420898 159.7590332 C83.56430317 160.80270561 83.56430317 160.80270561 83.56439925 161.86746231 C83.56500528 173.49340927 83.54987757 185.11927746 83.52337593 196.74519366 C83.50661163 204.53868231 83.50835143 212.3318766 83.52419865 220.12536395 C83.53000958 224.98249964 83.51923021 229.8394968 83.50395203 234.69660759 C83.50023664 236.94109151 83.50330231 239.185599 83.51382256 241.43006134 C83.59442345 259.86076273 81.75858378 272.29666603 68.8203125 286.37109375 C49.21305987 305.41719605 17.49087871 313.95229588 -9.171875 314.23828125 C-9.92857483 314.24789383 -10.68527466 314.25750641 -11.46490479 314.26741028 C-13.89331625 314.29196561 -16.32147915 314.30464556 -18.75 314.3125 C-19.5754834 314.31578308 -20.4009668 314.31906616 -21.25146484 314.32244873 C-35.54625559 314.34086985 -49.676125 313.77714893 -63 308 C-63 306.02 -63 304.04 -63 302 C-61.75992188 302.15726562 -60.51984375 302.31453125 -59.2421875 302.4765625 C-34.30714917 305.21250384 -10.4995864 302.3798197 9.875 286.75 C18.27824215 279.46058965 25.67098405 269.82720327 27.37035263 258.54015148 C27.5072065 255.98508163 27.52903686 253.45710926 27.50120544 250.89854431 C27.50673984 249.9326318 27.51227424 248.96671929 27.51797634 247.9715367 C27.53149871 244.76192469 27.51665926 241.55310171 27.50170898 238.34350586 C27.50549518 236.03153658 27.5109977 233.71956956 27.51808167 231.40760803 C27.53201333 225.14736802 27.52088266 218.88740355 27.50437045 212.62717891 C27.4904937 206.06773981 27.49698296 199.50831628 27.50050354 192.9488678 C27.50393271 181.93583924 27.4898369 170.92291382 27.46655273 159.90991211 C27.44262923 148.59313915 27.43555183 137.2765105 27.44604492 125.9597168 C27.4586882 112.29959793 27.45614935 98.63958035 27.44038582 84.97946358 C27.43463434 79.77034508 27.43470211 74.56127488 27.43945122 69.35215569 C27.44423053 63.21661677 27.4340795 57.08127704 27.41249657 50.94577599 C27.40694182 48.69681215 27.40645131 46.44782912 27.41144943 44.19886398 C27.41742536 41.12384713 27.40485254 38.04943457 27.38768005 34.97447205 C27.3936901 34.08924502 27.39970014 33.20401799 27.40589231 32.2919659 C27.32310553 24.11294874 25.57776798 16.61542928 19.86328125 10.50390625 C14.16904971 5.90793321 7.12474619 4.52775898 0 4 C0 2.68 0 1.36 0 0 Z"></path>
<path transform="translate(1701,153)" fill="#000000" d="M0 0 C36.96 0 73.92 0 112 0 C112 1.32 112 2.64 112 4 C111.16597656 4.07476562 110.33195312 4.14953125 109.47265625 4.2265625 C101.72522271 5.13176092 95.75531724 6.51815356 90 12 C88.28845987 14.29317772 87.21137806 16.37534753 86 19 C85.67 19.66 85.34 20.32 85 21 C84.89543785 23.76574805 84.85220512 26.5066887 84.85282898 29.27297974 C84.84915229 30.13884071 84.8454756 31.00470169 84.8416875 31.89680088 C84.83062209 34.81548383 84.82680196 37.73413121 84.82299805 40.65283203 C84.81673547 42.73864353 84.81008886 44.82445391 84.80308533 46.91026306 C84.78565454 52.59024882 84.77511755 58.27022614 84.7668798 63.95023203 C84.76173324 67.49782744 84.7556573 71.04542021 84.74936867 74.59301376 C84.73030938 85.68927868 84.71608074 96.78553693 84.7077567 107.88181508 C84.69798556 120.69628792 84.67167223 133.51058797 84.63125581 146.32499993 C84.60110217 156.22487254 84.58628846 166.12469561 84.58297569 176.02461326 C84.58062402 181.93933956 84.57164855 187.85388141 84.54651451 193.7685585 C84.52324261 199.3352016 84.51899717 204.90153872 84.52927589 210.46821785 C84.5297716 212.50959223 84.52344089 214.55098162 84.50971985 216.59230995 C84.49201026 219.3836121 84.49910266 222.17381511 84.51225281 224.96511841 C84.50128356 225.76922342 84.49031432 226.57332844 84.47901267 227.40180027 C84.55273073 233.90221753 86.47493296 239.07385967 90.74609375 244.0234375 C91.58333984 244.69246094 91.58333984 244.69246094 92.4375 245.375 C92.99308594 245.83648437 93.54867188 246.29796875 94.12109375 246.7734375 C98.20054475 249.43653025 101.99502111 250.27674851 106.8125 250.625 C107.78832031 250.69976562 108.76414062 250.77453125 109.76953125 250.8515625 C110.87361328 250.92503906 110.87361328 250.92503906 112 251 C112 252.65 112 254.3 112 256 C75.04 256 38.08 256 0 256 C0 254.35 0 252.7 0 251 C0.85722656 250.90203125 1.71445313 250.8040625 2.59765625 250.703125 C10.69007101 249.64481597 16.40930146 248.69044016 22.25 242.6875 C26.31693076 236.44185634 27.44281143 231.55375401 27.38095093 224.23963928 C27.3856309 223.38175684 27.39031087 222.5238744 27.39513266 221.63999552 C27.40705609 218.77814821 27.39763577 215.91678212 27.38818359 213.05493164 C27.3922505 210.99793723 27.39759305 208.940945 27.40411377 206.88395691 C27.41777981 201.30544521 27.41249136 195.72710014 27.40297651 190.14858556 C27.39537526 184.30668902 27.40242692 178.46480665 27.40713501 172.62290955 C27.41259162 162.81181277 27.40540383 153.00078375 27.39111328 143.18969727 C27.37479154 131.85333607 27.38007226 120.51713678 27.3965925 109.18077952 C27.41021544 99.442151 27.41212292 89.70357117 27.40427649 79.9649362 C27.39960385 74.15093962 27.39896384 68.33701909 27.40888596 62.52302742 C27.41756487 57.05564501 27.41151661 51.58847088 27.39420319 46.12111092 C27.39024312 44.11683498 27.39136415 42.11254145 27.39799118 40.10827255 C27.4062158 37.3677281 27.39587395 34.62784682 27.38095093 31.88734436 C27.38764309 31.09832279 27.39433526 30.30930122 27.40123022 29.4963699 C27.33136561 22.85997708 26.02190782 17.33297057 21.5625 12.1875 C20.716875 11.465625 19.87125 10.74375 19 10 C18.38125 9.443125 17.7625 8.88625 17.125 8.3125 C11.94820685 5.11506894 5.92517841 4.62370299 0 4 C0 2.68 0 1.36 0 0 Z"></path>
<path transform="translate(978,153)" fill="#000000" d="M0 0 C36.63 0 73.26 0 111 0 C111 1.32 111 2.64 111 4 C110.2265625 4.08636719 109.453125 4.17273438 108.65625 4.26171875 C100.30290328 5.38859349 94.67557039 7.32442961 88.6875 13.3125 C84.68237383 19.69103427 83.55551693 25.39317682 83.61904907 32.75999451 C83.6143691 33.60577515 83.60968913 34.4515558 83.60486734 35.32296616 C83.59296597 38.13791817 83.6023555 40.95237894 83.61181641 43.76733398 C83.60774852 45.79329715 83.60240542 47.81925809 83.59588623 49.84521484 C83.58223188 55.33489528 83.58750381 60.82440621 83.59702349 66.31408954 C83.60463082 72.06609213 83.59757139 77.81808044 83.59286499 83.57008362 C83.58741014 93.22977294 83.59459153 102.8893934 83.60888672 112.54907227 C83.62520805 123.70650359 83.61992733 134.8637704 83.6034075 146.02119774 C83.58977945 155.61039429 83.58787958 165.1995414 83.59572351 174.78874451 C83.60039335 180.51165561 83.60104389 186.23448946 83.59111404 191.95739555 C83.58242767 197.33943479 83.58849695 202.72126263 83.60579681 208.10327911 C83.60975291 210.07488466 83.60864268 212.0465081 83.60200882 214.01810646 C83.59376837 216.71664921 83.60414491 219.41452141 83.61904907 222.11302185 C83.61235691 222.88677562 83.60566474 223.66052938 83.59876978 224.45773023 C83.66949039 231.09338948 85.278503 236.97016528 88.5625 242.75 C95.03752242 248.72694377 102.3401775 250.7973233 111 251 C111 252.65 111 254.3 111 256 C74.37 256 37.74 256 0 256 C0 254.35 0 252.7 0 251 C0.845625 250.91363281 1.69125 250.82726562 2.5625 250.73828125 C9.57155966 249.87011363 15.79453633 249.09470912 21 244 C26.4166668 236.64202154 27.15059356 229.60841466 27.14044189 220.63909912 C27.14341302 219.8120671 27.14638414 218.98503508 27.1494453 218.13294148 C27.1580972 215.36954179 27.15963756 212.60618559 27.16113281 209.84277344 C27.16576344 207.8581381 27.17078844 205.87350366 27.17617798 203.88887024 C27.18927974 198.50236258 27.19574252 193.11586737 27.20018864 187.72934628 C27.20312275 184.36195395 27.20722819 180.994565 27.21169281 177.62717438 C27.22536144 167.08514254 27.23503139 156.54311845 27.2388947 146.00107837 C27.24337502 133.84324058 27.26092441 121.68551523 27.2898953 109.52771163 C27.31152823 100.1219897 27.32159983 90.71629937 27.32293582 81.31055284 C27.32398262 75.69655165 27.32986406 70.08265627 27.34775543 64.46868134 C27.36426408 59.18600128 27.366378 53.90350625 27.35761642 48.62080956 C27.35684757 46.68670594 27.3611687 44.75259227 27.37107468 42.81851387 C27.85547935 25.38197517 27.85547935 25.38197517 19.86328125 10.46875 C14.1131349 5.93613988 7.14002483 4.52889073 0 4 C0 2.68 0 1.36 0 0 Z"></path>
<path transform="translate(2164,11)" fill="#EB1C23" d="M0 0 C0.66 0 1.32 0 2 0 C0.62699382 3.65709179 -1.02306228 6.95590808 -2.984375 10.33203125 C-3.58258057 11.36537598 -4.18078613 12.3987207 -4.79711914 13.46337891 C-5.44156982 14.56858887 -6.08602051 15.67379883 -6.75 16.8125 C-7.42661701 17.97819845 -8.10296373 19.14405383 -8.77905273 20.31005859 C-10.51434754 23.30061581 -12.25384502 26.28870216 -13.99505615 29.27581787 C-14.94731826 30.90961395 -15.89873283 32.54390393 -16.85009766 34.17822266 C-20.31650208 40.13283541 -23.78964093 46.08348714 -27.26611328 52.03222656 C-30.1801084 57.01990957 -33.08982568 62.01008705 -36 67 C-37.16664643 69.0000118 -38.33331309 71.00001181 -39.5 73 C-40.0775 73.99 -40.655 74.98 -41.25 76 C-46.5 85 -46.5 85 -48.24975586 87.99951172 C-49.41731728 90.00109211 -50.58479764 92.00271977 -51.75219727 94.00439453 C-54.65451416 98.98060392 -57.55819916 103.95600455 -60.46484375 108.9296875 C-66.46777059 119.20532557 -72.44187788 129.49638563 -78.375 139.8125 C-84.1718926 149.88756713 -90.07273293 159.89712756 -96.01464844 169.88720703 C-101.24725804 178.69768022 -106.38802289 187.55826841 -111.49609375 196.44140625 C-116.20896699 204.63684477 -120.96388634 212.80682753 -125.73535156 220.96826172 C-129.97853192 228.232596 -134.18128009 235.51952681 -138.375 242.8125 C-147.09465452 257.96617476 -155.99770691 273.01257272 -165 288 C-168.9877867 286.67073777 -169.41577385 285.05339263 -171.484375 281.4375 C-171.81644958 280.86358521 -172.14852417 280.28967041 -172.49066162 279.69836426 C-173.20857229 278.45539335 -173.92238581 277.21004905 -174.63256836 275.96264648 C-176.14798953 273.3009749 -177.68264908 270.65058085 -179.21630859 267.99938965 C-180.00280154 266.6393782 -180.78827448 265.27877641 -181.57275391 263.91760254 C-185.14007178 257.73278935 -188.80696372 251.61051398 -192.5 245.5 C-198.02686439 236.33106988 -203.47086322 227.11653984 -208.875 217.875 C-213.74182745 209.55267829 -218.62558803 201.24364758 -223.60546875 192.98828125 C-226.8911661 187.530413 -230.12931821 182.04421786 -233.375 176.5625 C-234.76817951 174.20960601 -236.16140547 171.85673953 -237.5546875 169.50390625 C-237.91334396 168.89822815 -238.27200043 168.29255005 -238.64152527 167.66851807 C-242.92152407 160.44202192 -247.21099662 153.22115398 -251.5 146 C-256.06869788 138.30734815 -260.63704157 130.61449008 -265.19921875 122.91796875 C-266.19707397 121.23465454 -266.19707397 121.23465454 -267.21508789 119.51733398 C-268.5161485 117.32087828 -269.81613986 115.12378881 -271.11499023 112.92602539 C-274.19807745 107.71165292 -277.2926088 102.50496388 -280.4228363 97.31877136 C-281.94126337 94.80157885 -283.45384856 92.28090061 -284.9659729 89.75991821 C-285.69251972 88.55240392 -286.42195972 87.34662534 -287.15438843 86.14266968 C-288.16347965 84.4835666 -289.16209961 82.81810816 -290.16015625 81.15234375 C-290.73386963 80.20351318 -291.30758301 79.25468262 -291.89868164 78.27709961 C-292.2621167 77.52565674 -292.62555176 76.77421387 -293 76 C-292.505 75.01 -292.505 75.01 -292 74 C-286.38313951 79.52544685 -280.85905458 85.04082118 -275.7421875 91.0390625 C-273.03077636 94.09091988 -270.09662853 96.91144766 -267.19140625 99.77734375 C-264.57898932 102.4270144 -262.16697379 105.21172803 -259.74609375 108.03515625 C-257.90384325 110.10820324 -255.97598338 112.05435802 -254 114 C-251.40017817 116.55990134 -248.93731602 119.1677954 -246.5625 121.9375 C-243.99334729 124.92801716 -241.30682744 127.73116684 -238.5 130.5 C-235.0711721 133.88241399 -231.87951482 137.38070442 -228.74609375 141.03515625 C-226.90384325 143.10820324 -224.97598338 145.05435802 -223 147 C-220.40017817 149.55990134 -217.93731602 152.1677954 -215.5625 154.9375 C-212.99334729 157.92801716 -210.30682744 160.73116684 -207.5 163.5 C-204.0928121 166.86114482 -200.92541826 170.33701203 -197.8125 173.96875 C-195.07222917 177.03974317 -192.12053098 179.88786876 -189.19140625 182.77734375 C-186.5815403 185.42442704 -184.17150469 188.20587736 -181.75390625 191.02734375 C-179.24829552 193.84545827 -176.553465 196.45709477 -173.8671875 199.1015625 C-171.40070885 201.60932113 -169.19640856 204.25448931 -167 207 C-163.34354875 203.48042126 -160.14804375 199.78208649 -157.0625 195.75 C-152.80240643 190.25253485 -148.43934537 184.85363118 -144 179.5 C-139.76328818 174.38548318 -135.57912574 169.24113188 -131.5 164 C-127.42086495 158.75885615 -123.23633928 153.61483491 -119 148.5 C-114.28929545 142.81137381 -109.66035975 137.07221946 -105.11987305 131.24707031 C-100.49209395 125.32120385 -95.738701 119.49951957 -90.98828125 113.671875 C-88.64278467 110.79387546 -86.31398453 107.90344164 -84 105 C-81.14777448 101.42120755 -78.26647524 97.86737282 -75.375 94.3203125 C-70.70005625 88.5848491 -66.05469359 82.83154637 -61.5 77 C-54.90011529 68.5537834 -48.11185972 60.26247762 -41.33398438 51.95898438 C-35.2135436 44.4576686 -29.13129156 36.93392229 -23.17456055 29.30175781 C-19.05312788 24.03435851 -14.83457333 18.84808684 -10.58984375 13.6796875 C-7.34166389 9.7096899 -4.25844636 5.66668833 -1.2902832 1.48193359 C-0.65159302 0.74837646 -0.65159302 0.74837646 0 0 Z"></path>
</svg>
