<svg viewBox="0 0 42 42" height="42" width="42" xmlns="http://www.w3.org/2000/svg">
  <g transform="translate(0.02)" data-name="Group 42762" id="Group_42762">
    <circle fill="#faf1e7" transform="translate(-0.02)" r="21" cy="21" cx="21" data-name="Ellipse 1188" id="Ellipse_1188"></circle>
    <path fill="#c1271b" transform="translate(8.485 8.478)" d="M8.026,11.241A3.214,3.214,0,1,0,4.812,8.026a3.214,3.214,0,0,0,3.214,3.214Zm0-4.286A1.071,1.071,0,1,1,6.955,8.026,1.071,1.071,0,0,1,8.026,6.955ZM17.117,13.9a3.214,3.214,0,1,0,3.214,3.214A3.214,3.214,0,0,0,17.117,13.9Zm0,4.286a1.071,1.071,0,1,1,1.071-1.071A1.071,1.071,0,0,1,17.117,18.189ZM20.83,4.314a1.071,1.071,0,0,0-1.515,0l-15,15A1.071,1.071,0,1,0,5.829,20.83l15-15a1.071,1.071,0,0,0,0-1.515Z" data-name="0f40113ddd8d493768b0a77c3dee115f" id="_0f40113ddd8d493768b0a77c3dee115f"></path>
  </g>
</svg>
