<svg viewBox="0 0 42 42" height="42" width="42" xmlns="http://www.w3.org/2000/svg" data-name="Group 42764" id="Group_42764">
  <circle fill="#faf1e7" r="21" cy="21" cx="21" data-name="Ellipse 1189" id="Ellipse_1189"></circle>
  <g transform="translate(12.164 12.362)" id="f8ec19953a1baf386836748c215e6cf7">
    <path stroke-width="1" stroke="#c1271b" fill="#c1271b" transform="translate(-0.031 0.024)" d="M15.293.718a.269.269,0,0,0-.076-.434,3.224,3.224,0,0,0-3.663.642A3.522,3.522,0,0,0,10.746,4.5L4.528,10.72a3.183,3.183,0,0,0-1.076-.181A3.481,3.481,0,0,0,1,11.548a3.277,3.277,0,0,0-.69,3.636.268.268,0,0,0,.438.082l1.881-1.891a.311.311,0,0,1,.427-.037l.812.85a.3.3,0,0,1-.012.428L1.978,16.5a.269.269,0,0,0,.076.433,3.251,3.251,0,0,0,1.4.317,3.184,3.184,0,0,0,2.267-.959,3.52,3.52,0,0,0,.807-3.576L12.742,6.5a3.189,3.189,0,0,0,1.076.181,3.481,3.481,0,0,0,2.457-1.009,3.277,3.277,0,0,0,.69-3.636.268.268,0,0,0-.438-.082L14.646,3.845a.307.307,0,0,1-.432-.005l-.808-.808a.3.3,0,0,1,0-.428L15.293.718ZM13.025,3.413l.808.808a.859.859,0,0,0,1.2,0l1.579-1.586a2.743,2.743,0,0,1-.713,2.654,2.937,2.937,0,0,1-2.075.85,2.634,2.634,0,0,1-1.036-.2.269.269,0,0,0-.3.057L6.021,12.461a.269.269,0,0,0-.058.295,3,3,0,0,1-.627,3.158,2.67,2.67,0,0,1-2.686.678L4.235,15a.833.833,0,0,0,.016-1.184l-.811-.85a.861.861,0,0,0-1.2.033L.665,14.583a2.743,2.743,0,0,1,.713-2.654,2.937,2.937,0,0,1,2.075-.85,2.634,2.634,0,0,1,1.036.2.268.268,0,0,0,.3-.057L11.251,4.76a.269.269,0,0,0,.058-.295,3,3,0,0,1,.627-3.159A2.671,2.671,0,0,1,14.62.629l-1.595,1.6a.833.833,0,0,0,0,1.188Z" data-name="Path 47486" id="Path_47486"></path>
  </g>
</svg>
