<svg xmlns="http://www.w3.org/2000/svg" xmlns:xlink="http://www.w3.org/1999/xlink" width="31.787" height="31.787" viewBox="0 0 31.787 31.787">
  <defs>
    <clipPath id="clip-path">
      <rect id="Rectangle_3805" data-name="Rectangle 3805" width="31.787" height="31.787" fill="#080101"/>
    </clipPath>
  </defs>
  <g id="Group_12205" data-name="Group 12205" transform="translate(110.327 -7.673)">
    <g id="Group_12189" data-name="Group 12189" transform="translate(-110.327 7.673)" clip-path="url(#clip-path)">
      <path id="Path_5844" data-name="Path 5844" d="M15.894,31.787A15.894,15.894,0,1,1,31.787,15.894,15.912,15.912,0,0,1,15.894,31.787m0-31.131A15.237,15.237,0,1,0,31.13,15.894,15.254,15.254,0,0,0,15.894.657" fill="#080101"/>
      <path id="Path_5845" data-name="Path 5845" d="M59.955,43.806a5.949,5.949,0,0,1-3.7-1.19c-1.972-1.571-1.8-4-1.326-6.384.1-.508.2-.987.288-1.453.217-1.1.422-2.138.675-3.333a.576.576,0,0,0-.027-.439.287.287,0,0,0-.22-.073h-1.5l-.323-.387.487-2.685.323-.27h5.62l.27.142.255.369.05.26c-.018.078-1.777,7.812-2.082,10.724a1,1,0,0,0,.226.756,1.386,1.386,0,0,0,.952.467h0a3.37,3.37,0,0,0,1.011-.019l.418.337c-.19,2.817-.19,2.817-.192,2.828l-.269.283a5.837,5.837,0,0,1-.935.067m-5.42-13.528h1.111a.9.9,0,0,1,.73.316,1.128,1.128,0,0,1,.159.989c-.253,1.191-.457,2.227-.673,3.324-.092.467-.186.946-.288,1.454-.436,2.183-.606,4.39,1.091,5.742a5.6,5.6,0,0,0,3.859,1.019c.034-.5.105-1.559.144-2.139a5.733,5.733,0,0,1-.8-.019,2.044,2.044,0,0,1-1.4-.7,1.642,1.642,0,0,1-.372-1.243c.29-2.766,1.814-9.56,2.063-10.66l-.076-.109H54.9Zm4.607-4.129a2.021,2.021,0,0,1-2.258-2.088,2.787,2.787,0,0,1,2.911-2.713,2.021,2.021,0,0,1,2.258,2.088,2.755,2.755,0,0,1-2.911,2.713M59.795,22A2.139,2.139,0,0,0,57.54,24.06a1.4,1.4,0,0,0,1.6,1.432A2.115,2.115,0,0,0,61.4,23.435,1.394,1.394,0,0,0,59.795,22" transform="translate(-42.04 -16.675)" fill="#080101"/>
    </g>
  </g>
</svg>
