<svg width="15" height="15" viewBox="0 0 15 15" fill="none" xmlns="http://www.w3.org/2000/svg">
<path d="M7.34997 14.1646C11.2393 14.1646 14.3922 11.0117 14.3922 7.1224C14.3922 3.2331 11.2393 0.0802002 7.34997 0.0802002C3.46067 0.0802002 0.30777 3.2331 0.30777 7.1224C0.30777 11.0117 3.46067 14.1646 7.34997 14.1646Z" fill="white"/>
<g clip-path="url(#clip0_149_7648)">
<path d="M12.8052 6.41635C12.7051 6.13121 12.4334 5.92651 12.1152 5.92651H12.108C11.9006 5.92651 11.7138 6.01322 11.5806 6.15177C11.4474 6.01322 11.2606 5.92651 11.0533 5.92651H11.047C10.8647 5.92651 10.6975 5.99355 10.5697 6.1035V6.04808C10.5652 5.99177 10.5196 5.94797 10.4624 5.94797H9.97258C9.91269 5.94797 9.86443 5.99623 9.86443 6.05612V8.71446C9.86443 8.77435 9.91269 8.82262 9.97258 8.82262H10.4624C10.5169 8.82262 10.5625 8.7815 10.5688 8.72966V6.82127C10.5688 6.81412 10.5688 6.80875 10.5697 6.8025C10.5777 6.71758 10.6403 6.64696 10.7386 6.63892H10.8289C10.87 6.6425 10.9049 6.6568 10.9317 6.67914C10.9746 6.71311 10.9978 6.76495 10.9978 6.82216L10.9996 8.72072C10.9996 8.78061 11.0479 8.82977 11.1078 8.82977H11.5976C11.6557 8.82977 11.7022 8.78418 11.7049 8.72697V6.82037C11.7049 6.7578 11.7335 6.7006 11.7844 6.66752C11.8095 6.65143 11.8399 6.64071 11.8747 6.63713H11.965C12.0714 6.64607 12.1348 6.72652 12.1348 6.82037L12.1366 8.71714C12.1366 8.77703 12.1849 8.8253 12.2448 8.8253H12.7346C12.7918 8.8253 12.8392 8.78061 12.8428 8.72429V6.64428C12.8401 6.52719 12.8249 6.47266 12.8052 6.41635ZM9.49079 5.95512H9.21101V5.50104C9.21101 5.50014 9.21101 5.50014 9.21101 5.49925C9.21101 5.44562 9.16722 5.40092 9.1118 5.40092C9.10554 5.40092 9.09928 5.40182 9.09302 5.40271C8.78286 5.48763 8.84453 5.91758 8.27783 5.95422H8.2233C8.21525 5.95422 8.20721 5.95512 8.19917 5.95691C8.15179 5.96853 8.11514 6.01143 8.11514 6.06327V6.55311C8.11514 6.613 8.16341 6.66127 8.2233 6.66127H8.51827L8.51738 8.73681C8.51738 8.7958 8.56565 8.84407 8.62464 8.84407H9.10911C9.16811 8.84407 9.21638 8.7958 9.21638 8.73681V6.66127H9.49079C9.54979 6.66127 9.59895 6.6121 9.59895 6.55311V6.06327C9.59895 6.00339 9.55068 5.95512 9.49079 5.95512Z" fill="#00BAF2"/>
<path d="M7.72993 5.95561H7.2401C7.1811 5.95561 7.13194 6.00388 7.13194 6.06377V7.07651C7.13104 7.13908 7.0801 7.18914 7.01752 7.18914H6.81283C6.74937 7.18914 6.69752 7.13819 6.69752 7.07472L6.69574 6.06377C6.69574 6.00388 6.64747 5.95561 6.58758 5.95561H6.09774C6.03786 5.95561 5.98959 6.00388 5.98959 6.06377V7.17305C5.98959 7.59406 6.28992 7.89529 6.71182 7.89529C6.71182 7.89529 7.02825 7.89529 7.03808 7.89708C7.09529 7.90333 7.13909 7.9516 7.13909 8.0106C7.13909 8.0687 7.09618 8.11696 7.03898 8.12412C7.0363 8.12412 7.03361 8.12501 7.03093 8.1259L6.31495 8.12858C6.25506 8.12858 6.20679 8.17685 6.20679 8.23674V8.72568C6.20679 8.78557 6.25506 8.83384 6.31495 8.83384H7.11496C7.53686 8.83384 7.83719 8.5335 7.83719 8.1125V6.06377C7.83809 6.00388 7.78982 5.95561 7.72993 5.95561ZM4.94467 5.95829H4.26533C4.20544 5.95829 4.15628 6.00388 4.15628 6.0593V6.24969C4.15628 6.25059 4.15628 6.25237 4.15628 6.25327C4.15628 6.25506 4.15628 6.25595 4.15628 6.25774V6.51874C4.15628 6.57774 4.20813 6.6269 4.27159 6.6269H4.91874C4.96969 6.63495 5.00992 6.67249 5.01617 6.73059V6.79405C5.01081 6.84947 4.97059 6.8897 4.92143 6.89417H4.60142C4.17505 6.89417 3.87203 7.17752 3.87203 7.57439V8.14378C3.87203 8.53887 4.13304 8.81954 4.55584 8.81954H5.44344C5.60255 8.81954 5.73216 8.69887 5.73216 8.55049V6.69305C5.73216 6.24254 5.49975 5.95829 4.94467 5.95829ZM5.02243 8.00166V8.07853C5.02243 8.08479 5.02154 8.09104 5.02064 8.09641C5.01975 8.10177 5.01796 8.10713 5.01617 8.1125C5.00098 8.1554 4.95807 8.18669 4.90712 8.18669H4.70332C4.63986 8.18669 4.58802 8.13842 4.58802 8.07853V7.98646C4.58802 7.98557 4.58802 7.98378 4.58802 7.98289V7.73707V7.6602V7.65931C4.58802 7.60031 4.63986 7.55205 4.70332 7.55205H4.90712C4.97059 7.55205 5.02243 7.60031 5.02243 7.6602V8.00166ZM3.03449 5.95472H1.96454C1.90554 5.95472 1.85817 6.00299 1.85817 6.06109V6.54109C1.85817 6.54198 1.85817 6.54288 1.85817 6.54377C1.85817 6.54645 1.85817 6.54824 1.85817 6.55003V8.72121C1.85817 8.78021 1.90197 8.82848 1.95739 8.82937H2.45616C2.51605 8.82937 2.56432 8.7811 2.56432 8.72121L2.56611 7.97752H3.03449C3.426 7.97752 3.69952 7.70579 3.69952 7.3116V6.62154C3.69952 6.22824 3.426 5.95472 3.03449 5.95472ZM2.99158 6.85215V7.15428C2.99158 7.21774 2.94063 7.26959 2.87717 7.26959H2.567V6.66444H2.87717C2.94063 6.66444 2.99158 6.71539 2.99158 6.77886V6.85215Z" fill="#20336B"/>
</g>
<defs>
<clipPath id="clip0_149_7648">
<rect width="10.9837" height="3.44315" fill="white" transform="translate(1.85811 5.40163)"/>
</clipPath>
</defs>
</svg>
