<svg width="15" height="15" viewBox="0 0 15 15" fill="none" xmlns="http://www.w3.org/2000/svg">
<path d="M7.35975 14.1645C11.249 14.1645 14.4019 11.0116 14.4019 7.12234C14.4019 3.23304 11.249 0.0801392 7.35975 0.0801392C3.47045 0.0801392 0.317551 3.23304 0.317551 7.12234C0.317551 11.0116 3.47045 14.1645 7.35975 14.1645Z" fill="#5F259F"/>
<g clip-path="url(#clip0_149_7608)">
<path d="M13.3016 8.52669C14.0764 5.24513 12.0444 1.95674 8.76283 1.18186C5.48128 0.406985 2.19289 2.43905 1.41801 5.7206C0.643133 9.00215 2.67519 12.2905 5.95675 13.0654C9.2383 13.8403 12.5267 11.8082 13.3016 8.52669Z" fill="#5F259F"/>
<path d="M10.1306 5.52903C10.1306 5.29031 9.92599 5.08553 9.68727 5.08553H8.86857L6.99284 2.93678C6.82219 2.73219 6.54937 2.66393 6.27654 2.73219L5.62846 2.93678C5.52608 2.97089 5.49195 3.10742 5.56019 3.17547L7.60676 5.11967H4.50301C4.40061 5.11967 4.33237 5.18791 4.33237 5.29031V5.63121C4.33237 5.87012 4.53714 6.07469 4.77584 6.07469H5.25325V7.71192C5.25325 8.93976 5.90133 9.6559 6.99286 9.6559C7.33377 9.6559 7.60681 9.62176 7.94769 9.48545V10.5768C7.94769 10.8838 8.1866 11.1227 8.49356 11.1227H8.97097C9.07337 11.1227 9.17556 11.0203 9.17556 10.9179V6.04055H9.96015C10.0625 6.04055 10.1306 5.97231 10.1306 5.87012V5.52903H10.1306ZM7.94769 8.46214C7.74313 8.56451 7.47028 8.59865 7.26571 8.59865C6.71982 8.59865 6.44699 8.32582 6.44699 7.71189V6.07466H7.94769V8.46214Z" fill="white"/>
</g>
<defs>
<clipPath id="clip0_149_7608">
<rect width="12.2126" height="12.2126" fill="white" transform="translate(1.25346 1.01614)"/>
</clipPath>
</defs>
</svg>
