<svg height="484" width="2416" xmlns="http://www.w3.org/2000/svg" version="1.1">
<path transform="translate(1881,147)" fill="#FFFFFF" d="M0 0 C2.27441406 0.17260742 2.27441406 0.17260742 5 1 C6.85839844 3.23950195 6.85839844 3.23950195 8.609375 6.23828125 C9.60420898 7.91180664 9.60420898 7.91180664 10.61914062 9.61914062 C11.32955605 10.850186 12.0398388 12.08130795 12.75 13.3125 C13.50023697 14.58499775 14.25221983 15.85646761 15.00585938 17.12695312 C16.57126454 19.76900862 18.12903792 22.41534386 19.68164062 25.06494141 C22.87758329 30.50614548 26.16358444 35.89196518 29.45040894 41.27856445 C31.21737279 44.17656397 32.97746735 47.07873003 34.73828125 49.98046875 C35.44610027 51.14633742 36.15394537 52.31219026 36.86181641 53.47802734 C38.66290453 56.44464068 40.46372155 59.41141849 42.26445007 62.37825012 C51.4986243 77.59221114 60.74291605 92.79996453 70 108 C77.1453048 119.7325161 84.28613435 131.46771394 91.41387939 143.21090698 C92.49224597 144.98722731 93.5710098 146.76330573 94.64990234 148.53930664 C98.14658741 154.29586784 101.63872941 160.05507416 105.12109375 165.8203125 C106.39322686 167.9218764 107.66536216 170.02343896 108.9375 172.125 C109.81535156 173.58292969 109.81535156 173.58292969 110.7109375 175.0703125 C111.24847656 175.9571875 111.78601562 176.8440625 112.33984375 177.7578125 C112.80769287 178.5327002 113.27554199 179.30758789 113.75756836 180.10595703 C114.99160755 182.12721385 114.99160755 182.12721385 117 184 C125.46883713 169.71070015 133.87559136 155.38643956 142.23388672 141.03222656 C145.15328023 136.01994187 148.07683686 131.01008684 151 126 C152.16668691 124.00001181 153.33335357 122.0000118 154.5 120 C166.16666667 100 177.83333333 80 189.5 60 C190.3667334 58.51415405 190.3667334 58.51415405 191.25097656 56.99829102 C192.41434752 55.003964 193.57775879 53.00966051 194.74121094 51.01538086 C198.31416603 44.8908154 201.88607865 38.76564537 205.45532227 32.63891602 C206.6384802 30.61076023 207.8238152 28.58387268 209.01147461 26.55834961 C211.69486644 21.97931924 214.35161429 17.39144822 216.92578125 12.75 C217.59915527 11.55395142 217.59915527 11.55395142 218.28613281 10.33374023 C219.11043108 8.8669371 219.92197223 7.39285764 220.71777344 5.91040039 C221.81640625 3.97265625 221.81640625 3.97265625 224 1 C226.63647461 0.31420898 226.63647461 0.31420898 229 0 C231.14864889 10.60357659 232.43690254 21.33361581 233.84155273 32.05419922 C234.12244329 34.18251763 234.40358825 36.31080248 234.68496704 38.4390564 C235.28823591 43.00531321 235.88992949 47.57177383 236.49044609 52.1383934 C237.4414287 59.36837675 238.39727952 66.59771134 239.35401917 73.82693481 C242.07318009 94.37845722 244.78678791 114.93070891 247.4934082 135.48388672 C248.99000483 146.8482202 250.49112257 158.21194735 251.99711949 169.57503903 C252.94804641 176.75198387 253.89343041 183.92962967 254.83465755 191.1078527 C255.42296501 195.58420807 256.01656336 200.05985021 256.61162186 204.53531265 C256.88509446 206.60009368 257.15643772 208.66515811 257.42541313 210.73052979 C259.37915335 233.08164375 259.37915335 233.08164375 270.60546875 251.5234375 C276.9850256 256.39612331 285.27986964 256.37227095 293 257 C293 258.65 293 260.3 293 262 C256.37 262 219.74 262 182 262 C182 260.35 182 258.7 182 257 C182.65226562 256.97421875 183.30453125 256.9484375 183.9765625 256.921875 C189.71272821 256.54961646 193.52875703 255.92596944 198 252 C201.24805434 247.8012116 201.29853119 244.36394105 200.85546875 239.27441406 C200.77150093 238.10577002 200.77150093 238.10577002 200.68583679 236.913517 C199.83465413 225.78777568 198.55338694 214.69673716 197.3125 203.609375 C197.04690436 201.20570982 196.78169334 198.80200211 196.5168457 196.39825439 C195.96504246 191.39912079 195.41008959 186.4003513 194.85253906 181.40185547 C194.13853546 175.00029203 193.43031013 168.59810632 192.72413635 162.1956749 C192.1782827 157.2490214 191.63054734 152.30257787 191.0821228 147.3562088 C190.8202652 144.99436195 190.55872652 142.63247971 190.29751587 140.27056122 C189.93315982 136.9806331 189.56654502 133.69096483 189.19921875 130.40136719 C189.09217621 129.43198715 188.98513367 128.46260712 188.87484741 127.46385193 C188.36839452 122.94952626 187.80901594 118.47270575 187 114 C186.59386475 114.7120459 186.18772949 115.4240918 185.76928711 116.15771484 C173.62243819 137.44832348 161.43704622 158.7156313 149.0625 179.875 C141.86674274 192.18361316 134.78816534 204.55753376 127.74023438 216.95117188 C126.24955385 219.56279063 124.74658493 222.16644312 123.234375 224.765625 C114.9782689 239.01956923 109.2276109 252.80180369 106 269 C103.72998047 269.34155273 103.72998047 269.34155273 101 269 C99.10986328 266.73461914 99.10986328 266.73461914 97.3203125 263.53515625 C96.99115845 262.95996246 96.66200439 262.38476868 96.32287598 261.79214478 C95.23976073 259.89143279 94.18303912 257.97726521 93.125 256.0625 C92.36850699 254.72706077 91.60985265 253.39284375 90.84912109 252.05981445 C89.29791505 249.34001518 87.7541247 246.61621214 86.21484375 243.88964844 C83.11923489 238.42820547 79.87655001 233.05712156 76.625 227.6875 C70.96542084 218.29117651 65.34690353 208.87122632 59.75 199.4375 C59.35254578 198.76769104 58.95509155 198.09788208 58.54559326 197.40777588 C55.28636435 191.9149173 52.02864128 186.42116609 48.77099609 180.92736816 C40.11799249 166.33510116 31.46398461 151.74346495 22.75 137.1875 C21.87456543 135.72195679 21.87456543 135.72195679 20.98144531 134.22680664 C18.14565769 129.49843902 15.26016078 124.80922465 12.29394531 120.16137695 C11.67400696 119.18932816 11.0540686 118.21727936 10.41534424 117.21577454 C9.94828064 116.48456894 9.48121704 115.75336334 9 115 C7.09944373 131.67877425 5.22092818 148.35986163 3.36844349 165.04403687 C2.50774569 172.79114937 1.6399188 180.53733741 0.75512695 188.28173828 C-0.01625077 195.03361065 -0.77406955 201.78684532 -1.51580411 208.54204082 C-1.90883798 212.11719531 -2.30851287 215.69131669 -2.72444725 219.2638855 C-3.1890997 223.25711804 -3.62344063 227.25310087 -4.05541992 231.25 C-4.19711609 232.42748306 -4.33881226 233.60496613 -4.48480225 234.81813049 C-5.17606593 241.48558689 -5.08316851 245.98236348 -2 252 C2.74582977 256.51432588 7.73732823 256.75246357 14 257 C14 258.65 14 260.3 14 262 C-11.41 262 -36.82 262 -63 262 C-63 260.35 -63 258.7 -63 257 C-61.9378125 256.91363281 -60.875625 256.82726562 -59.78125 256.73828125 C-48.46718562 255.80569469 -48.46718562 255.80569469 -39 250 C-38.15888672 249.21882813 -38.15888672 249.21882813 -37.30078125 248.421875 C-28.08435525 238.15660633 -28.66801462 217.76645376 -27.01318359 204.67456055 C-26.72911719 202.45881291 -26.44457313 200.24312647 -26.15959167 198.02749634 C-25.55090633 193.28741453 -24.94549707 188.54693036 -24.34269333 183.80609703 C-23.38997534 176.31393214 -22.42948182 168.82277635 -21.46792603 161.33174133 C-20.12165556 150.83752546 -18.77853459 140.34291104 -17.43847656 129.84790039 C-17.35370755 129.18401921 -17.26893854 128.52013803 -17.18160076 127.83613924 C-16.8380222 125.14530375 -16.49445225 122.45446716 -16.15089389 119.76362909 C-15.20150794 112.32809457 -14.2513315 104.89266115 -13.30078125 97.45727539 C-13.21551195 96.79027304 -13.13024265 96.1232707 -13.04238944 95.43605616 C-11.62213645 84.32722492 -10.19897106 73.21876825 -8.77403319 62.11053687 C-7.81826044 54.65768585 -6.8662872 47.20436208 -5.91726279 39.75064886 C-5.32837021 35.13085799 -4.73651695 30.51144995 -4.1438694 25.89213943 C-3.86886075 23.74359281 -3.59512239 21.59488318 -3.32271767 19.44600487 C-2.95214958 16.52404592 -2.5771553 13.60268886 -2.20101929 10.68144226 C-2.09314099 9.82203637 -1.98526269 8.96263049 -1.87411535 8.07718199 C-1.11408086 2.22816172 -1.11408086 2.22816172 0 0 Z"></path>
<path transform="translate(1119,147)" fill="#FFFFFF" d="M0 0 C3.03175582 -0.29846301 4.49453983 -0.38842748 6.95703125 1.50390625 C7.56933594 2.18324219 8.18164062 2.86257812 8.8125 3.5625 C11.32422847 6.2419877 13.80908972 8.7673535 16.625 11.125 C20.62147615 14.5528076 24.29932381 18.26033341 28 22 C32.1664547 26.21012251 36.35285422 30.27241228 40.87890625 34.09765625 C44.47814366 37.32570159 47.82668211 40.8077371 51.22509766 44.24462891 C54.0475639 47.086724 56.87583732 49.84990122 59.9375 52.4375 C64.51351762 56.313999 68.64986201 60.6252468 72.86474609 64.88427734 C76.41441758 68.45681919 80.03148977 71.84596877 83.87890625 75.09765625 C87.47814366 78.32570159 90.82668211 81.8077371 94.22509766 85.24462891 C97.0475639 88.086724 99.87583732 90.84990122 102.9375 93.4375 C107.51351762 97.313999 111.64986201 101.6252468 115.86474609 105.88427734 C119.41441758 109.45681919 123.03148977 112.84596877 126.87890625 116.09765625 C130.47737461 119.32501185 133.8252353 122.80624973 137.22290039 126.24243164 C140.06657686 129.10590456 142.91883927 131.88884684 146 134.5 C149.70378566 137.63880141 153.08929145 141.05062676 156.5 144.5 C159.89006118 147.92844828 163.25193982 151.3226072 166.9375 154.4375 C171.6581257 158.42719011 175.92972489 162.88142316 180.25366211 167.29077148 C180.83768799 167.88317627 181.42171387 168.47558105 182.0234375 169.0859375 C182.81113525 169.8910376 182.81113525 169.8910376 183.61474609 170.71240234 C184.9910379 172.11276003 184.9910379 172.11276003 187 173 C187.04678042 154.77132988 187.08201842 136.5426754 187.10362434 118.31395817 C187.11392428 109.8495031 187.12796003 101.38508538 187.15087891 92.9206543 C187.17085212 85.54058365 187.18372576 78.16054006 187.18817699 70.78044313 C187.19077772 66.8749932 187.19686372 62.96962068 187.21146011 59.06419563 C187.22510622 55.38295934 187.22920853 51.70183185 187.22621536 48.02057266 C187.22702183 46.03630938 187.23774651 44.05205775 187.24884033 42.06782532 C187.22656008 32.35314373 187.07441632 23.32230692 180 16 C173.65352789 10.89522895 165.84261166 10.7671023 158 10 C158 8.35 158 6.7 158 5 C194.96 5 231.92 5 270 5 C270 6.65 270 8.3 270 10 C269.01 10.08636719 268.02 10.17273438 267 10.26171875 C256.11593053 11.32761684 256.11593053 11.32761684 247 17 C242.47369175 22.8029593 241.8519449 27.23491593 241.85955811 34.39273071 C241.85658698 35.25970215 241.85361586 36.12667359 241.8505547 37.01991689 C241.84185478 39.93727849 241.84035826 42.8545991 241.83886719 45.77197266 C241.8342393 47.85990487 241.82921468 49.94783623 241.82382202 52.0357666 C241.81067838 57.72303627 241.80424725 63.41029412 241.79981136 69.09757662 C241.79687899 72.6592134 241.79277349 76.22084698 241.78830719 79.78248215 C241.77461653 90.94872638 241.76496205 102.11496326 241.7611053 113.28121531 C241.75664439 126.12433682 241.73919522 138.96735084 241.7101047 151.81043971 C241.68836138 161.75985539 241.67839404 171.70924117 241.67706418 181.65868032 C241.67602358 187.58787058 241.67027856 193.51696003 241.65224457 199.44612503 C241.35523048 233.35058737 241.35523048 233.35058737 245 267 C240.27197266 267.21533203 240.27197266 267.21533203 237.82421875 265.27734375 C237.11910156 264.50519531 236.41398437 263.73304688 235.6875 262.9375 C232.96675582 260.05592365 230.28569867 257.29793314 227.25 254.75 C223.47267538 251.51661012 219.99318098 248.03298931 216.5 244.5 C213.08930473 241.05061278 209.7037844 237.63880034 206 234.5 C202.29621434 231.36119859 198.91070855 227.94937324 195.5 224.5 C192.10993882 221.07155172 188.74806018 217.6773928 185.0625 214.5625 C180.48648238 210.686001 176.35013799 206.3747532 172.13525391 202.11572266 C168.58558242 198.54318081 164.96851023 195.15403123 161.12109375 191.90234375 C157.52262539 188.67498815 154.1747647 185.19375027 150.77709961 181.75756836 C147.93342314 178.89409544 145.08116073 176.11115316 142 173.5 C137.67581294 169.8354347 133.75917709 165.78479134 129.77734375 161.7578125 C126.93358423 158.89425883 124.08124916 156.1112281 121 153.5 C116.67581294 149.8354347 112.75917709 145.78479134 108.77734375 141.7578125 C105.93358423 138.89425883 103.08124916 136.1112281 100 133.5 C95.67581294 129.8354347 91.75917709 125.78479134 87.77734375 121.7578125 C84.36479707 118.32151259 80.86977999 115.08212153 77.171875 111.953125 C73.48367226 108.63639592 70.03454322 105.0738777 66.56640625 101.52929688 C66.03402344 100.98853516 65.50164062 100.44777344 64.953125 99.890625 C64.48036133 99.40625977 64.00759766 98.92189453 63.52050781 98.42285156 C61.7807837 96.7948631 59.91338538 95.41730661 58 94 C57.90644714 112.75016996 57.83596721 131.50029237 57.79275131 150.25064754 C57.77214966 158.9572983 57.74407507 167.66380381 57.69824219 176.37036133 C57.65830082 183.96138359 57.63254977 191.55230062 57.62364602 199.14342505 C57.61844358 203.16075615 57.60626642 207.17778629 57.57707977 211.19502068 C57.54979499 214.98139899 57.54158111 218.76735427 57.54756927 222.55382156 C57.54647484 223.93847648 57.5385987 225.32314651 57.5231781 226.70771599 C57.43210946 235.31134585 57.59249211 243.28634113 63.75017929 249.87174892 C68.76980443 254.5297155 73.48417473 256.17478075 80.3125 256.625 C81.38113281 256.69976562 82.44976563 256.77453125 83.55078125 256.8515625 C84.35902344 256.90054687 85.16726563 256.94953125 86 257 C86 258.65 86 260.3 86 262 C49.37 262 12.74 262 -25 262 C-25 260.35 -25 258.7 -25 257 C-24.24976563 256.98582031 -23.49953125 256.97164063 -22.7265625 256.95703125 C-15.28549218 256.61028112 -9.06876642 255.54601734 -3 251 C2.07081328 245.0061585 3.14879066 239.45838556 3.14044189 231.75239563 C3.14341302 230.90105283 3.14638414 230.04971004 3.1494453 229.17256898 C3.1581444 226.30815136 3.15964167 223.44377549 3.16113281 220.5793457 C3.16576074 218.52919933 3.17078536 216.47905381 3.17617798 214.4289093 C3.18932076 208.84500927 3.19575251 203.26112128 3.20018864 197.67720819 C3.20312098 194.18057294 3.20722646 190.68394096 3.21169281 187.18730736 C3.22538288 176.22556267 3.23503781 165.26382547 3.2388947 154.30207282 C3.24335628 141.69269254 3.26080887 129.0834217 3.2898953 116.47407466 C3.3116344 106.70641404 3.32160573 96.93878388 3.32293582 87.17109936 C3.32397667 81.34981053 3.32972709 75.52862434 3.34775543 69.70736122 C3.36444476 64.21045728 3.3662924 58.71373074 3.35761642 53.21681023 C3.35685661 51.21924992 3.3610456 49.22167926 3.37107468 47.22414398 C3.43636324 33.38682859 2.27298756 19.99942313 0.26973414 6.30591649 C0 4 0 4 0 0 Z"></path>
<path transform="translate(203,152)" fill="#FFFFFF" d="M0 0 C34.98 0 69.96 0 106 0 C106 1.65 106 3.3 106 5 C105.07058594 5.08636719 104.14117187 5.17273438 103.18359375 5.26171875 C93.09148381 6.39172998 93.09148381 6.39172998 85 12 C82.39886778 16.34736706 81.62312491 19.54430527 81.61231995 24.5852356 C81.60241531 25.89401672 81.59251068 27.20279785 81.58230591 28.55123901 C81.58654378 29.99005221 81.59110162 31.4288645 81.59594727 32.86767578 C81.59024052 34.39274597 81.58327509 35.91781188 81.57514954 37.44287109 C81.55721677 41.58015202 81.55838911 45.71722079 81.56409192 49.8545289 C81.56718982 53.32247838 81.56108323 56.79038746 81.55505317 60.25833118 C81.54100332 68.45855065 81.54256737 76.65866602 81.55395508 84.85888672 C81.56538079 93.27136645 81.55145577 101.68352529 81.5245586 110.09596264 C81.50225072 117.34901275 81.4957995 124.6019633 81.50163502 131.8550452 C81.50497683 136.17271963 81.50278001 140.49018954 81.48538399 144.80783463 C81.37383648 175.46886168 82.70350991 203.34701082 104.5 227.125 C117.74265951 239.82836568 135.37241864 244.6627062 153.39624023 244.4050293 C169.67626416 243.7905217 184.13409502 239.0875534 197 229 C197.99128906 228.22914063 198.98257813 227.45828125 200.00390625 226.6640625 C213.83025014 215.02498648 219.95055361 195.17074702 221.79482269 177.79310989 C222.23317194 171.82579491 222.15684877 165.8411649 222.16113281 159.86083984 C222.16576922 158.34379457 222.17079497 156.82675045 222.17617798 155.30970764 C222.18921635 151.21279421 222.19572893 147.1158971 222.20018864 143.0189662 C222.20313052 140.45612974 222.20723716 137.89329765 222.21169281 135.33046341 C222.22533908 127.30168473 222.2350223 119.27291614 222.2388947 111.24412668 C222.24338224 101.99317989 222.26097434 92.74238034 222.2898953 83.49147832 C222.31151856 76.32521399 222.32159916 69.1589911 222.32293582 61.9926945 C222.32398247 57.71853554 222.3298618 53.44451555 222.34775543 49.17039108 C222.36424953 45.15329924 222.36638523 41.13645075 222.35761642 37.11933708 C222.35684703 35.64838572 222.36117592 34.17742117 222.37107468 32.70650291 C222.66072096 21.21957555 222.66072096 21.21957555 217.5703125 11.29296875 C211.16484779 6.39365385 205.86195625 5.58010551 198 5 C198 3.35 198 1.7 198 0 C223.41 0 248.82 0 275 0 C275 1.65 275 3.3 275 5 C273.71416016 5.14695313 273.71416016 5.14695313 272.40234375 5.296875 C261.21996643 6.6864094 261.21996643 6.6864094 252.84854126 13.72045898 C249.68481519 19.559521 250.44661936 26.33023032 250.48583984 32.78515625 C250.48037397 34.28893246 250.47312959 35.79270309 250.46424866 37.29646301 C250.44894328 40.52673828 250.44609665 43.75669607 250.45301437 46.98699951 C250.46384082 52.10815729 250.44636821 57.22898647 250.42520142 62.35009766 C250.39496041 70.46351634 250.3832497 78.57683725 250.37962496 86.69030762 C250.37298535 101.18467488 250.34367516 115.67897245 250.2945286 130.17325687 C250.27815728 135.24958456 250.27258937 140.32577007 250.27611899 145.40212154 C250.2765606 148.58117522 250.26892397 151.76017669 250.25944328 154.93921471 C250.25679346 156.3971199 250.25745492 157.85503612 250.26195335 159.31293678 C250.34469356 188.15837195 243.46806614 213.71866156 223.375 235.125 C209.2469772 248.71460729 190.97880791 256.20423842 172 260 C170.33904297 260.33837891 170.33904297 260.33837891 168.64453125 260.68359375 C132.73760628 266.67496788 90.63571903 261.21150155 60.18359375 240.30859375 C39.99925891 225.67185523 29.40802355 205.0156776 25.48101807 180.79968262 C24.67190195 174.157812 24.84685742 167.45509062 24.84228516 160.77490234 C24.83761027 159.23667762 24.83246561 157.69845426 24.82688904 156.16023254 C24.81565805 152.86075344 24.80720022 149.56128311 24.80076981 146.26179123 C24.79004397 141.04230177 24.76978971 135.82287605 24.74765015 130.60342407 C24.68587094 115.76591901 24.63166669 100.92841938 24.59863281 86.09082031 C24.580287 77.88626487 24.55135933 69.68181793 24.5106281 61.47734225 C24.48957273 57.14007329 24.47410275 52.80294089 24.47182083 48.46561813 C24.46967333 44.38939661 24.45379376 40.3134603 24.42743111 36.23732567 C24.42024296 34.74340195 24.41813481 33.24944366 24.42153358 31.75550652 C24.42543772 29.71299143 24.4091924 27.67046769 24.39199829 25.62802124 C24.38868814 24.48617056 24.385378 23.34431988 24.38196754 22.16786766 C23.94653195 18.55655994 22.75388886 16.16252901 21 13 C20.67 12.01 20.34 11.02 20 10 C17.70465742 8.86454438 17.70465742 8.86454438 15 8 C14.278125 7.649375 13.55625 7.29875 12.8125 6.9375 C8.62957264 5.54319088 4.38002633 5.32318641 0 5 C0 3.35 0 1.7 0 0 Z"></path>
<path transform="translate(2364,146)" fill="#FFFFFF" d="M0 0 C0 21.45 0 42.9 0 65 C-1.32 65 -2.64 65 -4 65 C-4.14695312 63.75605469 -4.29390625 62.51210937 -4.4453125 61.23046875 C-5.97070517 49.4672081 -7.70197693 39.2551046 -17.0625 31.0625 C-27.23742506 24.17940326 -38.5386271 23.39605284 -50.48828125 23.390625 C-51.75297241 23.37499512 -53.01766357 23.35936523 -54.32067871 23.34326172 C-58.98443208 23.29119184 -63.64851018 23.27248757 -68.3125 23.25 C-78.769375 23.1675 -89.22625 23.085 -100 23 C-100 57.65 -100 92.3 -100 128 C-91.440625 127.896875 -82.88125 127.79375 -74.0625 127.6875 C-70.03494507 127.65015747 -70.03494507 127.65015747 -65.92602539 127.61206055 C-63.77488502 127.57974643 -61.62376025 127.54636932 -59.47265625 127.51171875 C-57.82517395 127.50235291 -57.82517395 127.50235291 -56.14440918 127.49279785 C-45.84178635 127.3016868 -37.59113683 125.22569917 -30 118 C-23.87378573 111.46006737 -23.26917605 102.50244765 -22 94 C-20.68 94 -19.36 94 -18 94 C-18 122.05 -18 150.1 -18 179 C-19.32 179 -20.64 179 -22 179 C-22.08636719 178.17757812 -22.17273437 177.35515625 -22.26171875 176.5078125 C-23.41321237 167.35924854 -25.2768145 159.16081341 -32.1875 152.625 C-40.45121236 146.53083058 -48.73614152 145.40079634 -58.7890625 145.390625 C-59.84053467 145.37499512 -60.89200684 145.35936523 -61.9753418 145.34326172 C-65.85833574 145.29113347 -69.74172122 145.27247719 -73.625 145.25 C-82.32875 145.1675 -91.0325 145.085 -100 145 C-100 178.33 -100 211.66 -100 246 C-90.739375 245.9175 -81.47875 245.835 -71.9375 245.75 C-69.04605225 245.73420898 -66.15460449 245.71841797 -63.17553711 245.70214844 C-40.15761785 245.46414234 -21.36714762 242.50818514 -4 226 C6.52736522 214.86999491 12.75528482 201.1845706 18 187 C19.32 187 20.64 187 22 187 C21.46073826 195.32666682 19.74695399 203.2845174 17.875 211.3984375 C17.56442748 212.76450118 17.2543784 214.13068396 16.94482422 215.49697876 C16.13514947 219.06400071 15.31822504 222.6293232 14.49975586 226.19433594 C13.66707139 229.82772027 12.84178362 233.46278368 12.015625 237.09765625 C7.35642908 257.57428369 7.35642908 257.57428369 6 263 C-56.7 263 -119.4 263 -184 263 C-184 261.35 -184 259.7 -184 258 C-183.154375 257.91363281 -182.30875 257.82726562 -181.4375 257.73828125 C-173.3756875 256.73971584 -166.68752869 255.64868905 -161.44140625 249.03515625 C-157.41479497 242.9096881 -156.85164216 237.91131406 -156.85955811 230.6383667 C-156.85658698 229.78713108 -156.85361586 228.93589547 -156.8505547 228.05886483 C-156.84187139 225.2016682 -156.84035976 222.34451348 -156.83886719 219.48730469 C-156.83423875 217.4406068 -156.82921405 215.39390977 -156.82382202 213.34721375 C-156.81069838 207.78304165 -156.80425311 202.21888162 -156.79981136 196.65469646 C-156.79688054 193.17844925 -156.79277571 189.70220533 -156.78830719 186.22595978 C-156.77463227 175.34968129 -156.76496562 164.47341035 -156.7611053 153.59712386 C-156.75662461 141.04192396 -156.73907614 128.48683293 -156.7101047 115.93166614 C-156.68848838 106.2270799 -156.67840104 96.5225243 -156.67706418 86.81791425 C-156.67601611 81.0217427 -156.67010773 75.22567349 -156.65224457 69.42952728 C-156.63576487 63.97616031 -156.63360797 58.52297262 -156.64238358 53.06958961 C-156.643154 51.07014549 -156.6388105 49.07069173 -156.62892532 47.0712719 C-156.61620261 44.33715764 -156.62208444 41.60367807 -156.63250732 38.86956787 C-156.62445092 38.08239089 -156.61639452 37.2952139 -156.60809398 36.48418307 C-156.67409131 29.05814277 -158.61110491 22.38889509 -164 17 C-170.11481609 12.44641355 -176.54325164 11.85219981 -184 11 C-184 9.35 -184 7.7 -184 6 C-183.22844826 5.99853344 -182.45689651 5.99706688 -181.66196442 5.99555588 C-162.77659168 5.95829614 -143.89140099 5.89903135 -125.00617218 5.81609726 C-115.8729274 5.77650434 -106.73976632 5.74401262 -97.60644531 5.72900391 C-89.63393306 5.71588388 -81.66160652 5.6886605 -73.68919897 5.64538693 C-69.47864306 5.62300146 -65.26831417 5.60707525 -61.05769348 5.60811615 C-40.53990839 5.60787799 -19.88087019 0 0 0 Z"></path>
<path transform="translate(595.3502502441406,148.22543334960938)" fill="#FFFFFF" d="M0 0 C16.54679038 1.50134679 33.03616128 2.40437589 49.64974976 2.77456665 C49.2635968 7.87542278 48.872716 12.97588936 48.47787476 18.07608032 C48.34481071 19.80287415 48.2129305 21.5297597 48.08236694 23.25674438 C47.20848546 34.80206322 46.09977942 46.28694396 44.64974976 57.77456665 C42.99974976 57.44456665 41.34974976 57.11456665 39.64974976 56.77456665 C39.57498413 56.0475354 39.50021851 55.32050415 39.42318726 54.57144165 C37.95728949 43.36163521 34.24006552 33.77557939 25.26693726 26.52456665 C14.08186352 19.04559197 2.54398661 16.37611009 -10.72525024 16.46206665 C-11.64354614 16.4677063 -12.56184204 16.47334595 -13.50796509 16.47915649 C-26.58346626 16.71244136 -38.50399891 20.03194306 -48.28775024 29.14956665 C-54.47759327 35.88731444 -57.73581458 44.51026384 -57.35025024 53.64956665 C-55.89616913 64.31827413 -48.52311475 71.45319558 -40.35025024 77.77456665 C-35.45803538 81.28044859 -30.42439775 84.53949788 -25.35025024 87.77456665 C-24.46418091 88.34030396 -23.57811157 88.90604126 -22.66519165 89.48892212 C-16.53458672 93.40247343 -16.53458672 93.40247343 -10.40151978 97.31216431 C-1.08552028 103.26301082 8.11628598 109.37513334 17.29696655 115.53189087 C23.05835623 119.3936694 28.84293224 123.20382331 34.71224976 126.89956665 C52.1213196 138.04310575 64.5479361 151.56820524 69.18466187 172.14883423 C72.76427511 192.35814678 68.57305589 214.77821285 56.83724976 231.58706665 C41.27514512 251.65864478 19.05203494 261.4087188 -5.70669556 264.90103149 C-35.67719127 268.56926772 -74.29678245 266.65634179 -99.66275024 248.21206665 C-104.06033195 244.74756712 -106.01400348 240.78979052 -106.93228149 235.2862854 C-108.05641026 216.63336903 -105.81863223 197.25656492 -96.35025024 180.77456665 C-94.70025024 180.77456665 -93.05025024 180.77456665 -91.35025024 180.77456665 C-91.32446899 181.76714478 -91.29868774 182.7597229 -91.27212524 183.78237915 C-90.5686262 202.76744202 -85.15386705 218.31661638 -71.35025024 231.77456665 C-57.74230191 244.40514853 -39.54588334 249.02437186 -21.35025024 248.77456665 C-7.69728321 247.86341974 7.35083526 243.94510533 16.96224976 233.52456665 C24.07315779 224.43391718 26.46575652 215.15158398 25.64974976 203.77456665 C23.56738853 191.17628126 13.47915023 183.38812797 3.74789429 176.26837158 C-2.87826049 171.550783 -9.7253508 167.14938851 -16.53924561 162.70999146 C-21.43205777 159.52089994 -26.31221886 156.31253859 -31.19400024 153.1065979 C-32.156371 152.47514862 -33.11874176 151.84369934 -34.11027527 151.19311523 C-41.6649017 146.23356728 -49.20024501 141.24689375 -56.68884277 136.18811035 C-58.34363729 135.07121413 -60.00225963 133.95999558 -61.66104126 132.84902954 C-81.68508643 119.27376039 -95.05345416 105.35018269 -100.93618774 81.3878479 C-103.99873405 62.05913585 -99.00295835 42.44345878 -88.22134399 26.30581665 C-76.13536823 9.9556866 -57.04273176 2.65258071 -37.63150024 -0.69418335 C-25.14681498 -2.19234558 -12.4648842 -1.13685213 0 0 Z"></path>
<path transform="translate(668,145)" fill="#FFFFFF" d="M0 0 C8.91 1.98 8.91 1.98 18 4 C28.97941893 5.67503569 39.63850856 6.29495974 50.70556641 6.2746582 C52.3076806 6.27902022 53.90979272 6.28420823 55.51190186 6.29014587 C59.81397128 6.30339057 64.11595209 6.30413073 68.41803789 6.30158257 C72.03541193 6.30050239 75.65276879 6.30542293 79.2701391 6.310188 C87.8205684 6.32123409 96.37095376 6.32174906 104.92138672 6.31567383 C113.68047979 6.309645 122.43941178 6.32192865 131.19847739 6.3432439 C138.77276447 6.36098391 146.34700088 6.36684171 153.92130792 6.36360615 C158.42106986 6.36181197 162.92071702 6.36423885 167.42045975 6.37832069 C190.32563359 6.44371081 211.62112009 5.59471998 234 0 C234 21.45 234 42.9 234 65 C232.35 65 230.7 65 229 65 C228.96261719 64.17757812 228.92523437 63.35515625 228.88671875 62.5078125 C228.13958866 49.82125054 225.95665304 40.76863539 216.6875 31.75 C206.06331341 24.83192501 194.63129249 23.7273261 182.20703125 23.5859375 C181.13498947 23.56657135 180.06294769 23.5472052 178.9584198 23.5272522 C175.57652428 23.46807261 172.19459356 23.42132013 168.8125 23.375 C166.50193931 23.33676339 164.19139201 23.29770847 161.88085938 23.2578125 C156.25402621 23.16242279 150.62711058 23.07720026 145 23 C145.03717408 51.26831188 145.09704595 79.53649695 145.18390274 107.80470181 C145.22370373 120.93026877 145.2560909 134.05577569 145.27099609 147.18139648 C145.28400704 158.62233958 145.31095769 170.0631506 145.35461307 181.50401932 C145.37724015 187.5612913 145.39290992 193.61840031 145.39188385 199.67571831 C145.391138 205.37946883 145.40905947 211.08285892 145.44116783 216.78651619 C145.44967193 218.87743104 145.45141332 220.9683863 145.44580269 223.05931091 C145.4391491 225.92048843 145.45711624 228.78052372 145.48101807 231.6415863 C145.47325765 232.46359746 145.46549723 233.28560861 145.45750165 234.1325292 C145.55490192 240.74607833 147.18359194 246.88629278 151.7081778 251.88849252 C157.98137589 257.71828694 164.75719482 258.3809751 173 259 C173 260.65 173 262.3 173 264 C136.04 264 99.08 264 61 264 C61 262.35 61 260.7 61 259 C61.85722656 258.90203125 62.71445312 258.8040625 63.59765625 258.703125 C71.69007101 257.64481597 77.40930146 256.69044016 83.25 250.6875 C87.39830578 244.31688756 88.4424175 239.34319759 88.39872742 231.88209534 C88.40537424 230.98589995 88.41202107 230.08970456 88.41886932 229.16635174 C88.43746264 226.17531891 88.43489648 223.1846874 88.43237305 220.19360352 C88.44139243 218.04480933 88.45172008 215.8960203 88.46325684 213.74723816 C88.4908321 207.9213786 88.50011213 202.09561666 88.50611091 196.26970029 C88.51549313 190.17845368 88.54169645 184.08728003 88.56611633 177.99607849 C88.60978908 166.46488712 88.63833134 154.93370991 88.66143972 143.40246099 C88.68848717 130.27312316 88.73239901 117.14385868 88.77772844 104.01457322 C88.87058587 77.00975525 88.94226164 50.00491427 89 23 C82.24113976 23.09307777 75.48261081 23.20047713 68.72412109 23.31738281 C66.42957594 23.35543711 64.13497589 23.39032899 61.84033203 23.421875 C58.52356473 23.4680414 55.20716774 23.52594586 51.890625 23.5859375 C50.88074524 23.59748871 49.87086548 23.60903992 48.8303833 23.62094116 C35.66162575 23.88791018 23.18626441 25.26384353 13.625 35.125 C6.32448783 44.07734523 5.32847417 53.74975951 5 65 C3.35 65 1.7 65 0 65 C0 43.55 0 22.1 0 0 Z"></path>
<path transform="translate(1458,145)" fill="#FFFFFF" d="M0 0 C8.25 1.65 16.5 3.3 25 5 C30.63642783 5.62626976 35.69489213 6.12654775 41.28094482 6.14044189 C41.95577101 6.14341302 42.6305972 6.14638414 43.32587266 6.1494453 C45.55677975 6.15802311 47.7876325 6.15963119 50.01855469 6.16113281 C51.63110974 6.16576902 53.2436637 6.17079474 54.85621643 6.17617798 C59.21852424 6.18923317 63.58081671 6.1957343 67.94314098 6.20018864 C70.67895649 6.20313262 73.41476792 6.20724 76.15058136 6.21169281 C84.74002172 6.22535427 93.32945264 6.23502557 101.91890311 6.2388947 C111.7775717 6.24336181 121.6361007 6.26085258 131.4947269 6.2898953 C139.15037774 6.31165136 146.80598974 6.32160646 154.46167111 6.32293582 C159.01684791 6.32397464 163.57189328 6.3296814 168.12703705 6.34775543 C191.2354671 6.43404109 212.34949986 5.22703849 235 0 C235 21.45 235 42.9 235 65 C233.35 65 231.7 65 230 65 C229.88785156 63.47632813 229.88785156 63.47632813 229.7734375 61.921875 C228.81989007 51.25072956 226.52820036 42.60066886 219.625 34.0625 C208.14342629 25.04126351 196.7082909 23.91401611 182.5 23.68359375 C181.42371338 23.66281265 180.34742676 23.64203156 179.23852539 23.62062073 C175.82574385 23.55562821 172.41289028 23.49647575 169 23.4375 C166.67577403 23.39426687 164.35155513 23.3506511 162.02734375 23.30664062 C156.35163698 23.1999989 150.67585976 23.09814236 145 23 C145.06054057 51.00753135 145.13804492 79.01497136 145.23571491 107.02239895 C145.2806703 120.02688728 145.32008564 133.03134824 145.34643555 146.03588867 C145.36941761 157.37133931 145.40281813 168.70670331 145.44870156 180.04208523 C145.47263079 186.04343993 145.49136161 192.04470884 145.49761391 198.04611015 C145.503666 203.69728005 145.52367083 209.34823046 145.55427551 214.99931908 C145.56305365 217.07088445 145.56677879 219.14247852 145.56500816 221.21406174 C145.56335058 224.04879809 145.58009622 226.88286916 145.60127258 229.71751404 C145.59642501 230.5317433 145.59157743 231.34597256 145.58658296 232.18487543 C145.66946769 238.93669231 147.21765508 244.86307295 150.5625 250.75 C157.03752242 256.72694377 164.3401775 258.7973233 173 259 C173 260.65 173 262.3 173 264 C136.37 264 99.74 264 62 264 C62 262.35 62 260.7 62 259 C62.845625 258.91363281 63.69125 258.82726562 64.5625 258.73828125 C71.57155966 257.87011363 77.79453633 257.09470912 83 252 C88.52063688 244.500789 89.14737501 237.19142711 89.15821838 228.15420532 C89.16315636 227.27519857 89.16809434 226.39619181 89.17318195 225.49054849 C89.18851245 222.55180631 89.19690551 219.61308591 89.20532227 216.67431641 C89.21490428 214.56508188 89.22491456 212.45584927 89.23532104 210.34661865 C89.26234105 204.62402818 89.28336636 198.90142948 89.30332303 193.1788106 C89.32520048 187.19702184 89.35258057 181.21525835 89.37937927 175.23348999 C89.42928235 163.90767729 89.47423005 152.58185055 89.51740164 141.25601041 C89.56679437 128.36129942 89.62170496 115.46661378 89.67708123 102.57192731 C89.79086468 76.04797519 89.89771165 49.52399876 90 23 C83.24113976 23.09307777 76.48261081 23.20047713 69.72412109 23.31738281 C67.42957594 23.35543711 65.13497589 23.39032899 62.84033203 23.421875 C59.52356473 23.4680414 56.20716774 23.52594586 52.890625 23.5859375 C51.88074524 23.59748871 50.87086548 23.60903992 49.8303833 23.62094116 C36.93524498 23.88236312 23.57193806 25.42806194 14 35 C7.07431325 43.7351004 5.60848399 54.15219921 5 65 C3.35 65 1.7 65 0 65 C0 43.55 0 22.1 0 0 Z"></path>
<path transform="translate(83,152)" fill="#FFFFFF" d="M0 0 C36.96 0 73.92 0 112 0 C112 1.65 112 3.3 112 5 C110.82244141 5.14695313 110.82244141 5.14695313 109.62109375 5.296875 C101.43020964 6.46269409 96.2214053 7.7785947 90.25 13.75 C85.46964039 20.65496388 84.55868195 26.70722937 84.62818909 34.87872314 C84.62436452 35.84489366 84.62053996 36.81106418 84.6165995 37.80651259 C84.60734822 41.02903505 84.61928496 44.25112406 84.63110352 47.47363281 C84.62863441 49.7902901 84.62479489 52.10694627 84.61968994 54.42359924 C84.61136079 59.40593439 84.61215219 64.3881552 84.61987495 69.37049103 C84.63147196 77.25483981 84.61928299 85.13904198 84.60325623 93.02337646 C84.58242014 104.08280511 84.5699509 115.14221245 84.56616211 126.20166016 C84.56591724 126.90276412 84.56567237 127.60386808 84.56542008 128.32621762 C84.5628756 136.14352446 84.56230673 143.96083006 84.56335449 151.77813721 C84.56368752 154.61104329 84.56397292 157.44394937 84.56420898 160.27685547 C84.56430317 161.32540246 84.56430317 161.32540246 84.56439925 162.39513221 C84.56500528 174.07528674 84.55007359 185.75536687 84.52337593 197.43549037 C84.50660953 205.26661094 84.50835343 213.09743859 84.52419865 220.92855787 C84.53000949 225.80973039 84.51923025 230.69076504 84.50395203 235.57191277 C84.50023646 237.82768374 84.50330284 240.08347817 84.51382256 242.33922768 C84.59306977 260.55248788 82.9806621 273.37463993 69.9375 287.18359375 C49.95854002 306.02404682 18.82401032 315.04370417 -8.1796875 315.203125 C-8.95071808 315.20882507 -9.72174866 315.21452515 -10.5161438 315.22039795 C-12.1448634 315.22979958 -13.77360161 315.23636256 -15.40234375 315.24023438 C-17.83369547 315.24983687 -20.26416225 315.28086242 -22.6953125 315.3125 C-36.54662642 315.40570046 -49.9657248 313.97672326 -63 309 C-62.67 307.02 -62.34 305.04 -62 303 C-60.7521875 303.15855469 -59.504375 303.31710937 -58.21875 303.48046875 C-31.89990506 306.37451361 -8.59614223 302.41314987 12.66796875 286.05859375 C20.10352372 279.49487939 27.47316414 269.24797324 28.12649983 259.0195592 C28.12720426 258.31815804 28.12790868 257.61675688 28.12863445 256.89410114 C28.13347112 255.67303353 28.13347112 255.67303353 28.1384055 254.42729789 C28.1368569 253.53849738 28.1353083 252.64969687 28.13371277 251.73396301 C28.1371111 250.31116005 28.1371111 250.31116005 28.14057809 248.8596136 C28.14692108 245.67307972 28.14608852 242.48658833 28.14526367 239.30004883 C28.14825503 237.01852361 28.1516575 234.7369989 28.15544128 232.45547485 C28.16428917 226.25075714 28.16661977 220.04605322 28.16725707 213.84132981 C28.16820592 208.66255188 28.17188406 203.48377718 28.17542917 198.30500048 C28.18311157 186.78308792 28.18609752 175.26118322 28.18542381 163.73926846 C28.18536388 162.70225269 28.18536388 162.70225269 28.18530273 161.64428711 C28.18524141 160.60600145 28.18524141 160.60600145 28.18517885 159.54674032 C28.18477268 148.33687011 28.19433461 137.12703354 28.2084411 125.91717307 C28.22281833 114.4010429 28.22952753 102.88493346 28.22884732 91.36879367 C28.2285924 84.90583364 28.23144061 78.44291164 28.24202538 71.97995949 C28.25171254 65.8987264 28.25178122 59.81756766 28.24450874 53.73633194 C28.24346359 51.50671594 28.24582169 49.2770953 28.2518692 47.04748726 C28.25960197 43.99855614 28.25493564 40.94988092 28.24723816 37.9009552 C28.25238172 37.0233083 28.25752529 36.1456614 28.26282471 35.24141914 C28.21694888 26.99074688 27.36965177 19.56290772 22 13 C15.55556055 6.83575357 9.56306241 5.72310305 1 5 C0.505 2.525 0.505 2.525 0 0 Z"></path>
<path transform="translate(1700,152)" fill="#FFFFFF" d="M0 0 C36.96 0 73.92 0 112 0 C112 1.65 112 3.3 112 5 C111.16597656 5.07476562 110.33195312 5.14953125 109.47265625 5.2265625 C100.85937489 6.23292527 94.15552466 7.84616178 88.53781223 14.81346035 C83.3588818 23.66105816 84.3061646 33.44710862 84.36889648 43.36157227 C84.36375293 45.42724216 84.35646838 47.49290766 84.34721375 49.55856323 C84.32874843 55.14740645 84.34160734 60.73577069 84.36130404 66.32459378 C84.37772977 72.18335575 84.36887229 78.04208832 84.36378479 83.90086365 C84.35926859 93.73696514 84.37510533 103.57287618 84.40307617 113.40893555 C84.43513468 124.76981606 84.43510723 136.13035329 84.4178614 147.4912582 C84.40198161 158.43591132 84.4087387 169.38043895 84.42579842 180.32508659 C84.43265881 184.97600597 84.43164684 189.62682446 84.42425346 194.27774239 C84.41657574 199.75673351 84.42876566 205.2353353 84.45610237 210.7142601 C84.46297129 212.72133542 84.46310025 214.72844721 84.45588684 216.73552132 C84.44715454 219.48231925 84.46321166 222.22792592 84.4853363 224.97462463 C84.47709554 225.76257795 84.46885477 226.55053127 84.46036428 227.36236197 C84.55673786 233.87656299 86.26167478 239.97056245 90.70819467 244.88979346 C96.98373535 250.71692589 103.75650892 251.38092359 112 252 C112 253.65 112 255.3 112 257 C75.04 257 38.08 257 0 257 C0 255.35 0 253.7 0 252 C0.85722656 251.90203125 1.71445313 251.8040625 2.59765625 251.703125 C10.9225139 250.61441757 16.99403847 249.53033805 22.8125 243.125 C26.85658339 237.34773802 27.29481648 232.15134186 27.27415466 225.33538818 C27.27939134 224.47568774 27.28462802 223.61598731 27.29002339 222.73023534 C27.30499704 219.85624232 27.30572796 216.98242775 27.30639648 214.10839844 C27.31401976 212.04494426 27.32244755 209.98149292 27.33161926 207.91804504 C27.35355505 202.31666238 27.362362 196.7153343 27.36744571 191.11391354 C27.37109049 187.61250856 27.37733121 184.11111786 27.3844471 180.60971832 C27.40893881 168.38905714 27.42199281 156.16843838 27.42553711 143.94775391 C27.42917171 132.56538024 27.45906257 121.18327633 27.50094169 109.8009851 C27.53565888 100.02158618 27.5510858 90.24227659 27.55178314 80.46281648 C27.55257549 74.62518102 27.56129503 68.78782038 27.58978081 62.95024872 C27.61598549 57.45735014 27.61815292 51.96495374 27.60212517 46.4720211 C27.60031259 44.46050864 27.60698404 42.44896713 27.62294388 40.43751717 C28.07937835 25.86230652 28.07937835 25.86230652 22 13 C15.54290724 6.91027549 8.65853974 5.77619058 0 5 C0 3.35 0 1.7 0 0 Z"></path>
<path transform="translate(976,152)" fill="#FFFFFF" d="M0 0 C36.63 0 73.26 0 111 0 C111 1.65 111 3.3 111 5 C110.21496094 5.09796875 109.42992187 5.1959375 108.62109375 5.296875 C100.61004322 6.43709814 94.68825115 7.70434262 89.1875 14 C84.21134346 20.82444326 83.84945134 27.03656277 83.86628723 35.37435913 C83.8628889 36.61702386 83.8628889 36.61702386 83.85942191 37.88479292 C83.8531062 40.65286452 83.85390971 43.42088685 83.85473633 46.18896484 C83.85174334 48.17684492 83.84834049 50.16472442 83.84455872 52.15260315 C83.83572921 57.54724416 83.83338106 62.94186931 83.83274293 68.33651686 C83.83203189 71.7079138 83.82989655 75.07930672 83.82724571 78.45070267 C83.81799612 90.21518459 83.81391039 101.97965519 83.81469727 113.74414062 C83.81529812 124.70610969 83.80474376 135.66802955 83.7889536 146.62998617 C83.77587434 156.04586785 83.77051352 165.46173346 83.77115268 174.87762415 C83.77140753 180.49935996 83.76856327 186.12105203 83.75797462 191.74277878 C83.74828706 197.03034861 83.74821902 202.31783294 83.75549126 207.60540581 C83.75653624 209.54357084 83.75417934 211.48174121 83.7481308 213.41989708 C83.74039577 216.07058937 83.74506566 218.72098748 83.75276184 221.37167358 C83.74761828 222.13414064 83.74247471 222.89660769 83.73717529 223.68217981 C83.7874306 231.54326782 85.35109102 237.49152742 90 244 C90 244.66 90 245.32 90 246 C91.32258472 246.68774405 92.65986503 247.34711373 94 248 C95.03125 248.515625 96.0625 249.03125 97.125 249.5625 C101.58523421 251.4865226 106.19740469 251.71976808 111 252 C111 253.65 111 255.3 111 257 C74.37 257 37.74 257 0 257 C0 255.35 0 253.7 0 252 C0.845625 251.91363281 1.69125 251.82726562 2.5625 251.73828125 C11.41373812 250.64193471 17.58770272 249.13067565 23.375 242.125 C26.60096909 235.92121329 27.29465771 230.20944733 27.26742554 223.36698914 C27.27195665 222.52276848 27.27648776 221.67854783 27.28115618 220.80874473 C27.29376904 217.99312695 27.29218183 215.17770337 27.29052734 212.36206055 C27.29651452 210.33786776 27.30332051 208.31367726 27.31088257 206.28948975 C27.32853014 200.79972624 27.33323742 195.3100251 27.33451414 189.82023597 C27.33593697 186.38800711 27.34020906 182.95579404 27.34550858 179.52356911 C27.36400453 167.54280213 27.3721797 155.56207961 27.37060547 143.58129883 C27.3694041 132.42445167 27.39050682 121.26779797 27.4220928 110.11099976 C27.44826818 100.52266205 27.45897224 90.93438748 27.45769465 81.34601432 C27.4571854 75.62357358 27.46284817 69.90130483 27.48405075 64.17889977 C27.50345434 58.79519927 27.50354292 53.41183447 27.48901749 48.02812195 C27.48693096 46.05692872 27.49162091 44.08571436 27.5037384 42.11455727 C27.81187485 26.39896525 27.81187485 26.39896525 21.0703125 12.5625 C14.30412702 7.12781287 8.53184306 5.72046675 0 5 C0 3.35 0 1.7 0 0 Z"></path>
<path transform="translate(2165,10)" fill="#EB1C23" d="M0 0 C0.33 0.66 0.66 1.32 1 2 C0.05053711 4.04931641 0.05053711 4.04931641 -1.47265625 6.6015625 C-2.03525146 7.55401855 -2.59784668 8.50647461 -3.17749023 9.48779297 C-3.79954346 10.52307129 -4.42159668 11.55834961 -5.0625 12.625 C-6.36737298 14.82801515 -7.67205537 17.0311432 -8.9765625 19.234375 C-9.64848633 20.36294922 -10.32041016 21.49152344 -11.01269531 22.65429688 C-14.01639515 27.71113995 -16.97747919 32.79250828 -19.9375 37.875 C-20.51266357 38.86024658 -21.08782715 39.84549316 -21.68041992 40.8605957 C-25.94017397 48.16176571 -30.16073027 55.48501076 -34.375 62.8125 C-40.1718926 72.88756713 -46.07273293 82.89712756 -52.01464844 92.88720703 C-57.24642485 101.69627732 -62.38596364 110.55568107 -67.49389648 119.43701172 C-73.37418763 129.66111336 -79.31508986 139.84917774 -85.26611328 150.03222656 C-88.1801084 155.01990957 -91.08982568 160.01008705 -94 165 C-95.16664643 167.0000118 -96.33331309 169.00001181 -97.5 171 C-98.0775 171.99 -98.655 172.98 -99.25 174 C-115.875 202.5 -115.875 202.5 -132.5 231 C-133.07790283 231.9907251 -133.65580566 232.9814502 -134.2512207 234.00219727 C-135.41369684 235.99494394 -136.57629379 237.98762014 -137.73901367 239.98022461 C-140.72080839 245.09061862 -143.70026195 250.20235548 -146.67578125 255.31640625 C-149.58947163 260.32357092 -152.51158445 265.32573779 -155.43847656 270.32519531 C-156.89135164 272.81389127 -158.33339902 275.30855067 -159.7734375 277.8046875 C-160.57765661 279.18256515 -161.38230678 280.56019136 -162.1875 281.9375 C-162.5378833 282.55246338 -162.8882666 283.16742676 -163.24926758 283.80102539 C-165.65836555 287.88612185 -165.65836555 287.88612185 -169 289 C-169.37584229 288.34330322 -169.75168457 287.68660645 -170.13891602 287.01000977 C-177.66985952 273.86643565 -185.2795812 260.78181139 -193.09887695 247.80712891 C-198.18298939 239.37038807 -203.22482652 230.90941728 -208.25 222.4375 C-208.84790344 221.4297049 -208.84790344 221.4297049 -209.45788574 220.40155029 C-211.49244266 216.97216405 -213.52661612 213.54255062 -215.56054688 210.11279297 C-219.14349762 204.07143465 -222.73012473 198.03225939 -226.31652832 191.99295044 C-228.29450788 188.66205939 -230.27224129 185.33102219 -232.25 182 C-233.04166549 180.66666597 -233.83333216 179.33333264 -234.625 178 C-258.375 138 -258.375 138 -259.56222534 136.0004425 C-260.35478404 134.6656202 -261.14736627 133.33081188 -261.93997192 131.99601746 C-263.90568272 128.6855789 -265.87099865 125.37490727 -267.83544922 122.0637207 C-271.55794709 115.79022693 -275.28472502 109.51937479 -279.02435303 103.256073 C-280.79869692 100.28380582 -282.5709411 97.31028935 -284.34301758 94.33666992 C-285.19173683 92.91384083 -286.04149461 91.49163066 -286.89233398 90.07006836 C-288.06884373 88.10423984 -289.24182141 86.13634476 -290.4140625 84.16796875 C-291.0838916 83.04672607 -291.7537207 81.9254834 -292.44384766 80.77026367 C-294 78 -294 78 -295 75 C-291.29703581 76.51294925 -289.2799836 78.6805874 -286.6875 81.6875 C-283.99322412 84.76100292 -281.29804961 87.76793345 -278.375 90.625 C-276.00328224 92.9532 -273.78956386 95.35298523 -271.625 97.875 C-269.03365795 100.8846753 -266.32745217 103.71088616 -263.5 106.5 C-260.0928121 109.86114482 -256.92541826 113.33701203 -253.8125 116.96875 C-251.7890712 119.23638572 -249.66346653 121.3657695 -247.5 123.5 C-244.0928121 126.86114482 -240.92541826 130.33701203 -237.8125 133.96875 C-235.7890712 136.23638572 -233.66346653 138.3657695 -231.5 140.5 C-228.0928121 143.86114482 -224.92541826 147.33701203 -221.8125 150.96875 C-219.7890712 153.23638572 -217.66346653 155.3657695 -215.5 157.5 C-212.0928121 160.86114482 -208.92541826 164.33701203 -205.8125 167.96875 C-203.7890712 170.23638572 -201.66346653 172.3657695 -199.5 174.5 C-196.0928121 177.86114482 -192.92541826 181.33701203 -189.8125 184.96875 C-187.07834135 188.03289332 -184.13369487 190.87495625 -181.2109375 193.7578125 C-178.5143361 196.49252841 -175.9975184 199.35073927 -173.5078125 202.2734375 C-172.06727105 203.92296942 -170.56673075 205.47079574 -169 207 C-165.06855278 205.68951759 -163.58418109 203.19441865 -161.1875 200 C-160.20375759 198.71726396 -159.21798586 197.43608234 -158.23046875 196.15625 C-157.70759277 195.47820312 -157.1847168 194.80015625 -156.64599609 194.1015625 C-153.83341029 190.51053037 -150.91419143 187.00867212 -148 183.5 C-143.76284811 178.3858602 -139.57911443 173.24111735 -135.5 168 C-131.42086604 162.75885756 -127.23638682 157.61479473 -123 152.5 C-118.1895001 146.69185874 -113.4670584 140.82778059 -108.82763672 134.88232422 C-105.42484539 130.52559655 -101.94879057 126.23482388 -98.4375 121.96484375 C-90.81925032 112.69841506 -83.26775684 103.38435672 -75.87890625 93.93383789 C-72.45616413 89.56248229 -68.96389473 85.25319163 -65.4375 80.96484375 C-57.81925032 71.69841506 -50.26775684 62.38435672 -42.87890625 52.93383789 C-39.45616413 48.56248229 -35.96389473 44.25319163 -32.4375 39.96484375 C-24.75423444 30.61933324 -17.1414401 21.2244104 -9.6965332 11.68774414 C-6.56891489 7.69241494 -3.35360958 3.80680006 0 0 Z"></path>
</svg>
